<svg width="60" height="60" viewBox="0 0 60 60" fill="none" xmlns="http://www.w3.org/2000/svg">
<path d="M45.3654 29.5455H39.5472C39.0018 29.5455 38.6381 29.1819 38.6381 28.6365C38.6381 28.091 39.0018 27.7274 39.5472 27.7274H45.3654C49.0018 27.7274 52.0018 24.7274 52.0018 21.091C52.0018 17.4546 49.0018 14.4546 45.3654 14.4546C45.0927 14.4546 44.82 14.3637 44.6381 14.091C44.4563 13.8183 44.4563 13.5455 44.4563 13.2728C44.7291 12.2728 44.9109 11.5455 44.9109 10.7274C44.9109 6.27282 41.3654 2.72736 36.9109 2.72736C32.4563 2.72736 28.9109 6.27282 28.9109 10.7274C28.9109 11.2728 28.5472 11.6365 28.0018 11.6365C27.4563 11.6365 27.0927 11.2728 27.0927 10.7274V9.81827C25.9109 8.27282 24.0927 7.36373 22.1836 7.36373C18.82 7.36373 16.0018 10.1819 16.0018 13.5455C16.0018 14.091 15.6381 14.4546 15.0927 14.4546C14.5472 14.4546 14.1836 14.091 14.1836 13.5455C14.1836 9.091 17.729 5.54554 22.1836 5.54554C24.1836 5.54554 26.0927 6.36373 27.5472 7.72736C28.82 3.72736 32.5472 0.90918 36.9109 0.90918C42.3654 0.90918 46.7291 5.27282 46.7291 10.7274C46.7291 11.3637 46.6381 12.0001 46.5472 12.7274C50.6381 13.2728 53.82 16.8183 53.82 21.091C53.82 25.7274 50.0018 29.5455 45.3654 29.5455Z" fill="white"/>
<path d="M20.0916 29.6364H14.728C10.0916 29.6364 6.27344 25.8182 6.27344 21.1818C6.27344 16.5455 10.0916 12.7273 14.728 12.7273C15.8189 12.7273 17.0007 12.9091 18.0007 13.3637C18.4553 13.5455 18.728 14.0909 18.5462 14.5455C18.3643 15 17.8189 15.2728 17.3643 15.0909C16.5462 14.8182 15.728 14.6364 14.8189 14.6364C11.1825 14.6364 8.18253 17.6364 8.18253 21.2727C8.18253 24.9091 11.1825 27.9091 14.8189 27.9091H20.1825C20.728 27.9091 21.0916 28.2728 21.0916 28.8182C21.0916 29.3637 20.6371 29.6364 20.0916 29.6364ZM30.0007 59.0909C29.8189 59.0909 29.728 59.0909 29.5462 59L22.8189 55.1818C22.5462 55 22.3643 54.7273 22.3643 54.3637V46.9091C22.3643 46.5455 22.5462 46.2728 22.8189 46.0909C23.0916 45.9091 23.4553 45.9091 23.728 46.0909L30.4553 50C30.728 50.1818 30.9098 50.4546 30.9098 50.8182V58.1818C30.9098 58.5455 30.728 58.8182 30.4553 59C30.2734 59.0909 30.1825 59.0909 30.0007 59.0909ZM24.1825 53.8182L29.0916 56.6364V51.3637L24.1825 48.5455V53.8182Z" fill="white"/>
<path d="M30.0028 59.091C29.821 59.091 29.7301 59.091 29.5483 59C29.2756 58.8182 29.0938 58.5455 29.0938 58.1819V50.8182C29.0938 50.4546 29.2756 50.1819 29.5483 50L36.2756 46.091C36.5483 45.9091 36.9119 45.9091 37.1847 46.091C37.4574 46.2728 37.6392 46.5455 37.6392 46.9091V54.3637C37.6392 54.7273 37.4574 55 37.1847 55.1819L30.4574 59C30.2756 59.091 30.1847 59.091 30.0028 59.091ZM30.9119 51.3637V56.6364L35.821 53.8182V48.4546L30.9119 51.3637Z" fill="white"/>
<path d="M30.0014 51.7274C29.8196 51.7274 29.7287 51.7274 29.5469 51.6365L22.8196 47.7274C22.5469 47.5456 22.3651 47.2729 22.3651 46.9092C22.3651 46.5456 22.5469 46.2729 22.8196 46.091L29.5469 42.2729C29.8196 42.091 30.1832 42.091 30.456 42.2729L37.1832 46.091C37.456 46.2729 37.6378 46.5456 37.6378 46.9092C37.6378 47.2729 37.456 47.5456 37.1832 47.7274L30.456 51.6365C30.2741 51.7274 30.1832 51.7274 30.0014 51.7274ZM25.0923 46.9092L30.0014 49.7274L34.9105 46.9092L30.0014 44.091L25.0923 46.9092ZM30.0014 22.6365C24.8196 22.6365 19.5469 21.0001 19.5469 18.0001C19.5469 15.0001 24.8196 13.3638 30.0014 13.3638C35.0923 13.3638 40.456 15.0001 40.456 18.0001C40.456 21.0001 35.1832 22.6365 30.0014 22.6365ZM30.0014 15.182C24.7287 15.182 21.3651 16.8183 21.3651 18.0001C21.3651 19.182 24.7287 20.8183 30.0014 20.8183C35.2741 20.8183 38.6378 19.182 38.6378 18.0001C38.6378 16.9092 35.1832 15.182 30.0014 15.182ZM30.0014 39.6365C24.8196 39.6365 19.5469 38.0001 19.5469 35.0001V29.3638C19.5469 28.8183 19.9105 28.4547 20.456 28.4547C21.0014 28.4547 21.3651 28.8183 21.3651 29.3638C21.3651 30.5456 24.7287 32.182 30.0014 32.182C35.1832 32.182 38.6378 30.4547 38.6378 29.3638C38.6378 28.8183 39.0014 28.4547 39.5469 28.4547C40.0923 28.4547 40.456 28.8183 40.456 29.3638V35.0001C40.456 38.0001 35.1832 39.6365 30.0014 39.6365ZM21.3651 32.091V35.0001C21.3651 36.1819 24.7287 37.8183 30.0014 37.8183C35.2741 37.8183 38.6378 36.1819 38.6378 35.0001V32.091C36.6378 33.3638 33.2741 34.0001 30.0014 34.0001C26.7287 34.0001 23.3651 33.3638 21.3651 32.091Z" fill="white"/>
<path d="M30.0014 28.2729C24.8196 28.2729 19.5469 26.6365 19.5469 23.6365V18.0002C19.5469 17.4547 19.9105 17.0911 20.456 17.0911C21.0014 17.0911 21.3651 17.4547 21.3651 18.0002C21.3651 19.182 24.7287 20.8183 30.0014 20.8183C35.2741 20.8183 38.6378 19.182 38.6378 18.0002C38.6378 17.4547 39.0014 17.0911 39.5469 17.0911C40.0923 17.0911 40.456 17.4547 40.456 18.0002V23.6365C40.456 26.6365 35.1832 28.2729 30.0014 28.2729ZM21.3651 20.7274V23.6365C21.3651 24.8183 24.7287 26.4547 30.0014 26.4547C35.2741 26.4547 38.6378 24.8183 38.6378 23.6365V20.7274C34.6378 23.2729 25.3651 23.2729 21.3651 20.7274Z" fill="white"/>
<path d="M30.0014 34.0002C24.8196 34.0002 19.5469 32.3638 19.5469 29.3638V23.7275C19.5469 23.182 19.9105 22.8184 20.456 22.8184C21.0014 22.8184 21.3651 23.182 21.3651 23.7275C21.3651 24.9093 24.7287 26.5456 30.0014 26.5456C35.1832 26.5456 38.6378 24.8184 38.6378 23.7275C38.6378 23.182 39.0014 22.8184 39.5469 22.8184C40.0923 22.8184 40.456 23.182 40.456 23.7275V29.3638C40.456 32.3638 35.1832 34.0002 30.0014 34.0002ZM21.3651 26.4547V29.3638C21.3651 30.5456 24.7287 32.182 30.0014 32.182C35.2742 32.182 38.6378 30.5456 38.6378 29.3638V26.4547C36.6378 27.7275 33.2741 28.3638 30.0014 28.3638C26.7287 28.3638 23.3651 27.7275 21.3651 26.4547ZM50.9105 53.5456C50.7287 53.5456 50.6378 53.5456 50.456 53.4547L43.7287 49.6365C43.456 49.4547 43.2742 49.182 43.2742 48.8184V41.4547C43.2742 41.0911 43.456 40.8184 43.7287 40.6365C44.0014 40.4547 44.3651 40.4547 44.6378 40.6365L51.3651 44.4547C51.6378 44.6365 51.8196 44.9093 51.8196 45.2729V52.6365C51.8196 53.0002 51.6378 53.2729 51.3651 53.4547C51.1832 53.5456 51.0923 53.5456 50.9105 53.5456ZM45.0923 48.2729L50.0014 51.0911V45.8184L45.0923 43.0002V48.2729Z" fill="white"/>
<path d="M50.911 53.5455C50.7292 53.5455 50.6383 53.5455 50.4565 53.4545C50.1838 53.2727 50.002 53 50.002 52.6364V45.2727C50.002 44.9091 50.1838 44.6364 50.4565 44.4545L57.0929 40.6364C57.3656 40.4545 57.7292 40.4545 58.002 40.6364C58.2747 40.8182 58.4565 41.0909 58.4565 41.4545V48.8182C58.4565 49.1818 58.2747 49.4545 58.002 49.6364L51.3656 53.4545C51.1838 53.5455 51.0929 53.5455 50.911 53.5455ZM51.8201 45.8182V51.0909L56.6383 48.3636V43.0909L51.8201 45.8182Z" fill="white"/>
<path d="M50.9105 46.182C50.7287 46.182 50.6378 46.182 50.456 46.0911L43.7287 42.2729C43.456 42.0911 43.2741 41.8183 43.2741 41.4547C43.2741 41.0911 43.456 40.8183 43.7287 40.6365L50.456 36.7274C50.7287 36.5456 51.0923 36.5456 51.3651 36.7274L58.0014 40.6365C58.2741 40.8183 58.456 41.0911 58.456 41.4547C58.456 41.8183 58.2741 42.0911 58.0014 42.2729L51.3651 46.0911C51.1832 46.182 51.0923 46.182 50.9105 46.182ZM46.0014 41.4547L50.9105 44.2729L55.7287 41.4547L50.9105 38.6365L46.0014 41.4547ZM9.09233 53.5456C8.91051 53.5456 8.8196 53.5456 8.63778 53.4547L2.00142 49.6365C1.72869 49.4547 1.54688 49.182 1.54688 48.8183V41.4547C1.54688 41.0911 1.72869 40.8183 2.00142 40.6365C2.27415 40.4547 2.63778 40.4547 2.91051 40.6365L9.54688 44.4547C9.8196 44.6365 10.0014 44.9092 10.0014 45.2729V52.6365C10.0014 53.0002 9.8196 53.2729 9.54688 53.4547C9.36506 53.5456 9.27415 53.5456 9.09233 53.5456ZM3.36506 48.2729L8.18324 51.0002V45.7274L3.36506 43.0002V48.2729Z" fill="white"/>
<path d="M9.09073 53.5455C8.90891 53.5455 8.818 53.5455 8.63619 53.4545C8.36346 53.2727 8.18164 53 8.18164 52.6364V45.2727C8.18164 44.9091 8.36346 44.6364 8.63619 44.4545L15.3635 40.6364C15.6362 40.4545 15.9998 40.4545 16.2726 40.6364C16.5453 40.8182 16.7271 41.0909 16.7271 41.4545V48.8182C16.7271 49.1818 16.5453 49.4545 16.2726 49.6364L9.54528 53.4545C9.36346 53.5455 9.27255 53.5455 9.09073 53.5455ZM9.99982 45.8182V51.0909L14.9089 48.2727V43L9.99982 45.8182Z" fill="white"/>
<path d="M9.09233 46.182C8.91051 46.182 8.8196 46.182 8.63778 46.0911L2.00142 42.2729C1.72869 42.0911 1.54688 41.8183 1.54688 41.4547C1.54688 41.0911 1.72869 40.8183 2.00142 40.6365L8.63778 36.7274C8.91051 36.5456 9.27415 36.5456 9.54688 36.7274L16.2741 40.6365C16.5469 40.8183 16.7287 41.0911 16.7287 41.4547C16.7287 41.8183 16.5469 42.0911 16.2741 42.2729L9.54688 46.0911C9.36506 46.182 9.27415 46.182 9.09233 46.182ZM4.27415 41.4547L9.09233 44.2729L14.0014 41.4547L9.09233 38.6365L4.27415 41.4547ZM30.0014 44.0002C29.456 44.0002 29.0923 43.6365 29.0923 43.0911V39.2729C29.0923 38.7274 29.456 38.3638 30.0014 38.3638C30.5469 38.3638 30.9105 38.7274 30.9105 39.2729V43.0911C30.9105 43.6365 30.5469 44.0002 30.0014 44.0002Z" fill="white"/>
<path d="M9.09073 38.5457C8.54528 38.5457 8.18164 38.182 8.18164 37.6366V36.0911C8.18164 34.0002 9.818 32.3638 11.9089 32.3638H20.4544C20.9998 32.3638 21.3635 32.7275 21.3635 33.2729C21.3635 33.8184 20.9998 34.182 20.4544 34.182H11.9089C10.9089 34.182 9.99982 35.0911 9.99982 36.0911V37.6366C9.99982 38.182 9.63619 38.5457 9.09073 38.5457ZM50.9089 38.4547C50.3635 38.4547 49.9998 38.0911 49.9998 37.5457V36.0002C49.9998 35.0002 49.0907 34.0911 48.0907 34.0911H39.5453C38.9998 34.0911 38.6362 33.7275 38.6362 33.182C38.6362 32.6366 38.9998 32.2729 39.5453 32.2729H48.0907C50.1816 32.2729 51.818 33.9093 51.818 36.0002V37.5457C51.818 38.0911 51.4544 38.4547 50.9089 38.4547ZM24.1816 24.8184C23.6362 24.8184 23.2726 24.4547 23.2726 23.9093V23.4547C23.2726 22.9093 23.6362 22.5457 24.1816 22.5457C24.7271 22.5457 25.0907 22.9093 25.0907 23.4547V23.9093C25.0907 24.4547 24.7271 24.8184 24.1816 24.8184ZM26.7271 25.4547C26.1816 25.4547 25.818 25.0911 25.818 24.5457V24.0911C25.818 23.5457 26.1816 23.182 26.7271 23.182C27.2726 23.182 27.6362 23.5457 27.6362 24.0911V24.5457C27.6362 25.0911 27.2726 25.4547 26.7271 25.4547ZM29.2726 25.7275C28.7271 25.7275 28.3635 25.3638 28.3635 24.8184V24.3638C28.3635 23.8184 28.7271 23.4547 29.2726 23.4547C29.818 23.4547 30.1816 23.8184 30.1816 24.3638V24.8184C30.1816 25.3638 29.818 25.7275 29.2726 25.7275ZM24.1816 30.4547C23.6362 30.4547 23.2726 30.0911 23.2726 29.5457V29.0911C23.2726 28.5457 23.6362 28.182 24.1816 28.182C24.7271 28.182 25.0907 28.5457 25.0907 29.0911V29.5457C25.0907 30.0911 24.7271 30.4547 24.1816 30.4547ZM26.7271 31.0911C26.1816 31.0911 25.818 30.7275 25.818 30.182V29.7275C25.818 29.182 26.1816 28.8184 26.7271 28.8184C27.2726 28.8184 27.6362 29.182 27.6362 29.7275V30.182C27.6362 30.7275 27.2726 31.0911 26.7271 31.0911ZM29.2726 31.3638C28.7271 31.3638 28.3635 31.0002 28.3635 30.4547V30.0002C28.3635 29.4547 28.7271 29.0911 29.2726 29.0911C29.818 29.0911 30.1816 29.4547 30.1816 30.0002V30.4547C30.1816 31.0002 29.818 31.3638 29.2726 31.3638ZM24.1816 36.182C23.6362 36.182 23.2726 35.8184 23.2726 35.2729V34.8184C23.2726 34.2729 23.6362 33.9093 24.1816 33.9093C24.7271 33.9093 25.0907 34.2729 25.0907 34.8184V35.2729C25.0907 35.8184 24.7271 36.182 24.1816 36.182ZM26.7271 36.8184C26.1816 36.8184 25.818 36.4547 25.818 35.9093V35.4547C25.818 34.9093 26.1816 34.5457 26.7271 34.5457C27.2726 34.5457 27.6362 34.9093 27.6362 35.4547V35.9093C27.6362 36.4547 27.2726 36.8184 26.7271 36.8184ZM29.2726 37.0002C28.7271 37.0002 28.3635 36.6366 28.3635 36.0911V35.6366C28.3635 35.0911 28.7271 34.7275 29.2726 34.7275C29.818 34.7275 30.1816 35.0911 30.1816 35.6366V36.0911C30.1816 36.6366 29.818 37.0002 29.2726 37.0002Z" fill="white"/>
</svg>
