<svg width="24" height="24" viewBox="0 0 24 24" fill="none" xmlns="http://www.w3.org/2000/svg">
<mask id="mask0_771_20856" style="mask-type:luminance" maskUnits="userSpaceOnUse" x="0" y="0" width="24" height="24">
<path d="M20 0H4C1.79086 0 0 1.79086 0 4V20C0 22.2091 1.79086 24 4 24H20C22.2091 24 24 22.2091 24 20V4C24 1.79086 22.2091 0 20 0Z" fill="white"/>
</mask>
<g mask="url(#mask0_771_20856)">
<path fill-rule="evenodd" clip-rule="evenodd" d="M0.544967 2.73005C0 3.79961 0 5.19974 0 8V16C0 18.8003 0 20.2004 0.544967 21.27C1.02433 22.2108 1.78924 22.9757 2.73005 23.455C3.79961 24 5.19974 24 8 24H16C18.8003 24 20.2004 24 21.27 23.455C22.2108 22.9757 22.9757 22.2108 23.455 21.27C24 20.2004 24 18.8003 24 16V8C24 5.19974 24 3.79961 23.455 2.73005C22.9757 1.78924 22.2108 1.02433 21.27 0.544967C20.2004 0 18.8003 0 16 0H8C5.19974 0 3.79961 0 2.73005 0.544967C1.78924 1.02433 1.02433 1.78924 0.544967 2.73005ZM10.4394 12.6703L5.03413 5.5H9.20008L12.7437 10.2007L17.1294 5.5H18.3536L13.2906 10.9264L19 18.5H14.834L10.9864 13.396L6.22419 18.5H5L10.4394 12.6703ZM8.74824 6.39462H6.83439L15.2856 17.6052H17.1995L8.74824 6.39462Z" fill="white"/>
</g>
</svg>
