<svg width="40" height="40" viewBox="0 0 40 40" fill="none" xmlns="http://www.w3.org/2000/svg">
<g clip-path="url(#clip0_771_14838)">
<path d="M34.1664 34.1419C32.6131 35.6952 30.8964 36.9394 29.0164 37.8744C27.1698 38.7955 25.1911 39.4238 23.1514 39.7369C19.0735 40.3689 14.8999 39.7181 11.2081 37.8744C9.32807 36.9394 7.6114 35.6952 6.05807 34.1411C4.5039 32.5877 3.26223 30.8752 2.33223 29.0002C0.481565 25.307 -0.172075 21.1288 0.462234 17.0469C0.775222 15.0069 1.40356 13.028 2.32473 11.1811C3.25973 9.30189 4.5039 7.58522 6.05807 6.03105C7.6114 4.47772 9.32473 3.23605 11.1997 2.30605C13.0457 1.38184 15.0254 0.75335 17.0664 0.443555C19.0964 0.126888 21.1272 0.126888 23.1581 0.443555C25.1991 0.753364 27.1788 1.38186 29.0247 2.30605C30.8997 3.23605 32.6131 4.47772 34.1664 6.03105C35.7197 7.58522 36.9647 9.30189 37.8997 11.1811C38.82 13.0251 39.4459 15.0018 39.7547 17.0394C40.0713 19.0579 40.0713 21.1134 39.7547 23.1319C39.445 25.1729 38.8165 27.1526 37.8922 28.9986C36.9622 30.8736 35.7197 32.5869 34.1672 34.1402L34.1664 34.1419ZM25.9206 25.6594L27.6372 25.6519V12.5627H14.5456L14.5389 14.2794L24.6997 14.2719L11.9889 26.9836L13.2164 28.2111L25.9272 15.5002L25.9189 25.6611L25.9206 25.6594Z" fill="#9CA3AF"/>
</g>
<defs>
<clipPath id="clip0_771_14838">
<rect width="40" height="40" fill="white"/>
</clipPath>
</defs>
</svg>
