<svg width="285" height="124" viewBox="0 0 285 124" fill="none" xmlns="http://www.w3.org/2000/svg">
<path d="M32.0007 44.2053C31.3873 44.2053 30.8535 43.9996 30.3993 43.588C29.9451 43.1764 29.6753 42.6644 29.59 42.052H34.4113C34.326 42.6653 34.0562 43.1773 33.602 43.588C33.1478 43.9987 32.614 44.2044 32.0007 44.2053ZM27.4113 36C26.1518 35.1742 25.1571 34.1271 24.4273 32.8587C23.6975 31.5902 23.3331 30.1929 23.334 28.6667C23.334 26.248 24.174 24.1991 25.854 22.52C27.534 20.8409 29.5829 20.0009 32.0007 20C34.4184 19.9991 36.4673 20.8391 38.1473 22.52C39.8273 24.2009 40.6673 26.2498 40.6673 28.6667C40.6673 30.1929 40.3029 31.5902 39.574 32.8587C38.8451 34.1271 37.8504 35.1742 36.59 36H27.4113ZM27.8007 34.6667H36.2007C37.2007 33.9556 37.9731 33.0778 38.518 32.0333C39.0629 30.9889 39.3349 29.8667 39.334 28.6667C39.334 26.6222 38.6229 24.8889 37.2007 23.4667C35.7784 22.0444 34.0451 21.3333 32.0007 21.3333C29.9562 21.3333 28.2229 22.0444 26.8007 23.4667C25.3784 24.8889 24.6673 26.6222 24.6673 28.6667C24.6673 29.8667 24.9398 30.9889 25.4847 32.0333C26.0295 33.0778 26.8015 33.9556 27.8007 34.6667Z" fill="black"/>
<path opacity="0.5" d="M27.5247 39.5016C27.6527 39.6287 27.8113 39.6922 28.0007 39.6922H36.0007C36.1909 39.694 36.3495 39.6304 36.4767 39.5016C36.6038 39.3727 36.6673 39.214 36.6673 39.0256C36.6673 38.8371 36.6038 38.6789 36.4767 38.5509C36.3495 38.4229 36.1909 38.3589 36.0007 38.3589H28.0007C27.8095 38.3607 27.6509 38.4247 27.5247 38.5509C27.3984 38.6771 27.3349 38.8353 27.334 39.0256C27.3331 39.2158 27.3967 39.3744 27.5247 39.5016Z" fill="black"/>
</svg>
