<svg width="285" height="124" viewBox="0 0 285 124" fill="none" xmlns="http://www.w3.org/2000/svg">
<path opacity="0.5" d="M27.5603 43.4882L25.8057 40.5548L22.4977 39.8562C22.2328 39.8073 22.0217 39.6651 21.8643 39.4295C21.707 39.1948 21.6421 38.9451 21.6697 38.6802L21.9857 35.2722L19.7417 32.7122C19.5532 32.5193 19.459 32.282 19.459 32.0002C19.459 31.7184 19.5532 31.4811 19.7417 31.2882L21.9857 28.7282L21.6697 25.3215C21.643 25.0557 21.7079 24.8055 21.8643 24.5708C22.0217 24.3362 22.2328 24.194 22.4977 24.1442L25.8043 23.4468L27.559 20.5135C27.703 20.2753 27.8963 20.1108 28.139 20.0202C28.3817 19.9286 28.6328 19.9406 28.8923 20.0562L32.0003 21.3695L35.107 20.0562C35.3674 19.9406 35.619 19.9286 35.8617 20.0202C36.1043 20.1108 36.2977 20.2753 36.4417 20.5135L38.195 23.4468L41.503 24.1442C41.7679 24.194 41.979 24.3362 42.1363 24.5708C42.2937 24.8055 42.3585 25.0557 42.331 25.3215L42.0163 28.7282L44.259 31.2882C44.4474 31.4811 44.5417 31.7184 44.5417 32.0002C44.5417 32.282 44.4474 32.5197 44.259 32.7135L42.0163 35.2722L42.331 38.6789C42.3577 38.9446 42.2928 39.1948 42.1363 39.4295C41.979 39.6651 41.7679 39.8073 41.503 39.8562L38.1963 40.5548L36.4417 43.4882C36.2977 43.7255 36.1043 43.89 35.8617 43.9815C35.619 44.0731 35.3679 44.0606 35.1083 43.9442L32.0003 42.6308L28.8937 43.9442C28.6332 44.0597 28.3817 44.0717 28.139 43.9802C27.8963 43.8895 27.703 43.7251 27.559 43.4869M28.6003 42.6002L32.0003 41.1855L35.4163 42.6002L37.3337 39.4002L41.0003 38.5855L40.667 34.8002L43.1337 32.0002L40.667 29.1855L41.0003 25.4002L37.3337 24.6002L35.4003 21.4002L32.0003 22.8162L28.5857 21.4002L26.667 24.6002L23.0003 25.4002L23.3337 29.1855L20.867 32.0002L23.3337 34.8002L23.0003 38.6002L26.667 39.4002L28.6003 42.6002Z" fill="black"/>
<path d="M28.2042 31.52L30.5989 33.9066L35.7869 28.72C35.9327 28.5733 36.0909 28.5013 36.2615 28.504C36.4322 28.5066 36.5909 28.5813 36.7375 28.728C36.8798 28.8746 36.9478 29.0364 36.9415 29.2133C36.9353 29.3893 36.8673 29.5422 36.7375 29.672L31.3535 35.056C31.1375 35.2711 30.886 35.3786 30.5989 35.3786C30.3118 35.3786 30.0602 35.2711 29.8442 35.056L27.2602 32.472C27.118 32.3298 27.0469 32.1724 27.0469 32C27.0469 31.8275 27.118 31.6702 27.2602 31.528C27.4069 31.3804 27.57 31.3111 27.7495 31.32C27.9282 31.3289 28.0798 31.3955 28.2042 31.52Z" fill="black"/>
</svg>
