<svg width="54" height="53" viewBox="0 0 54 53" fill="none" xmlns="http://www.w3.org/2000/svg">
<path d="M28.294 27.4859C30.4 27.1079 31.912 26.4599 32.992 25.7579C31.264 23.7059 28.78 22.3559 26.026 22.0859C24.244 23.0039 22.246 23.5439 20.14 23.5439C18.034 23.5439 16.036 23.0579 14.254 22.0859C8.962 22.6799 4.75 27.2159 4.75 32.7239V39.0959C4.75 39.6359 5.182 40.0679 5.722 40.0679H24.136C24.082 39.6359 24.082 39.2039 24.082 38.7719V32.2919C24.136 29.9159 25.864 27.8639 28.294 27.4859Z" fill="#008DD2"/>
<path d="M20.1943 19.9256C25.3239 19.9256 29.4822 15.7672 29.4822 10.6376C29.4822 5.50799 25.3239 1.34961 20.1943 1.34961C15.0646 1.34961 10.9062 5.50799 10.9062 10.6376C10.9062 15.7672 15.0646 19.9256 20.1943 19.9256Z" fill="#008DD2"/>
<path d="M48.0071 30.9413C43.3091 30.1853 40.7171 28.0793 39.4751 26.6213C38.9351 26.0273 37.9631 26.0273 37.4231 26.6213C36.1271 28.0793 33.5891 30.1853 28.8911 30.9413C28.1891 31.0493 27.7031 31.6433 27.7031 32.3453V38.8253C27.7031 46.0073 35.3711 51.0833 37.8011 52.4873C38.2331 52.7573 38.7731 52.7573 39.2051 52.4873C41.5811 51.0833 49.3031 46.0073 49.3031 38.8253V32.3453C49.2491 31.6433 48.7091 31.0493 48.0071 30.9413ZM43.9031 37.5293L38.3951 43.0373C38.0711 43.3613 37.6391 43.5773 37.1531 43.5773C36.6671 43.5773 36.2351 43.4153 35.9111 43.0373L33.0491 40.1753C32.3471 39.4733 32.3471 38.3393 33.0491 37.6913C33.7511 36.9893 34.8851 36.9893 35.5331 37.6913L37.1531 39.3113L41.4191 35.0453C42.1211 34.3433 43.2551 34.3433 43.9031 35.0453C44.5511 35.6933 44.5511 36.8273 43.9031 37.5293Z" fill="#008DD2"/>
</svg>
