<svg width="53" height="58" viewBox="0 0 53 58" fill="none" xmlns="http://www.w3.org/2000/svg">
<g clip-path="url(#clip0_771_20751)">
<g clip-path="url(#clip1_771_20751)">
<path fill-rule="evenodd" clip-rule="evenodd" d="M12.8597 53.2243C15.4217 53.2243 17.505 51.361 17.505 49.0664C17.505 48.2469 17.2376 47.4835 16.776 46.8365H16.9011C14.861 44.6066 15.0767 42.7821 17.2376 42.1438H24.3844C25.191 42.1438 25.8509 41.4839 25.8509 40.6773V34.3327C26.3512 30.0023 28.2016 31.2876 30.3797 32.629C35.6418 35.8682 39.1397 28.1951 34.887 25.5684C31.5486 23.5067 30.1037 27.0521 27.6581 26.6855C26.7135 26.5431 26.0579 25.5209 25.8509 23.9682V17.6969C25.8509 16.8903 25.191 16.2304 24.3844 16.2304H18.1261C15.1629 15.8551 14.6022 13.8625 16.8968 11.3565H16.7717C17.2332 10.7096 17.5007 9.94613 17.5007 9.12663C17.505 6.83203 15.426 4.96875 12.8597 4.96875C10.2977 4.96875 8.21875 6.83203 8.21875 9.12663C8.21875 9.94613 8.48617 10.7096 8.94767 11.3565H8.91748C11.2121 13.8625 10.6557 15.8595 7.68823 16.2304H1.40397C0.597412 16.2304 -0.0625 16.8903 -0.0625 17.6969V24.2356C0.407634 26.927 2.34855 27.3669 4.76392 25.1543V25.1845C5.41089 24.723 6.17432 24.4556 6.99382 24.4556C9.28841 24.4556 11.1517 26.5345 11.1517 29.0965C11.1517 31.6585 9.28841 33.7375 6.99382 33.7375C6.17432 33.7375 5.41089 33.4701 4.76392 33.0085V33.1336C2.34855 30.921 0.407634 31.3652 -0.0625 34.0566V40.6816C-0.0625 41.4882 0.597412 42.1481 1.40397 42.1481H8.57674C10.7376 42.7865 10.9576 44.6109 8.91317 46.8408H8.94336C8.48617 47.4878 8.21444 48.2512 8.21444 49.0707C8.21875 51.3653 10.2977 53.2286 12.8597 53.2243ZM40.0153 53.4615H40.0067C37.4447 53.4615 35.3614 51.5982 35.3614 49.3036C35.3614 48.4841 35.6288 47.7207 36.0903 47.0737H36.0601C38.1003 44.8438 37.8846 43.0194 35.7237 42.381H28.5509C27.7444 42.381 27.0845 41.7211 27.0845 40.9146V34.3025C27.4295 33.3018 27.8695 32.9482 28.387 32.9352C28.6243 32.9309 28.8744 32.9956 29.1418 33.1077C29.8923 33.4183 30.7722 34.0696 31.7297 34.4405C35.4218 35.8639 38.592 32.271 38.3806 28.5789C38.3332 27.7551 38.0011 26.9443 37.5094 26.1938C35.6245 23.3126 32.8339 23.0409 30.1425 24.6842C28.7709 25.5252 27.6797 26.1593 27.0543 24.1795L27.0888 17.9298C27.0931 17.1232 27.7487 16.4633 28.5553 16.4633H34.8352C37.7983 16.0881 38.3591 14.0954 36.0645 11.5894H36.0946C35.6331 10.9425 35.3657 10.179 35.3657 9.35954C35.3657 7.06494 37.4447 5.20166 40.011 5.20166H40.0196C42.5816 5.20166 44.6649 7.06494 44.6649 9.35954C44.6649 10.179 44.3975 10.9425 43.936 11.5894H43.9661C41.6716 14.0954 42.2279 16.0924 45.1954 16.4633H51.4753C52.2819 16.4633 52.9418 17.1232 52.9418 17.9298V24.4685C52.4717 27.1599 50.5308 27.5999 48.1154 25.3872V25.4174C47.4684 24.9559 46.705 24.6885 45.8855 24.6885C43.5909 24.6885 41.7276 26.7674 41.7276 29.3294C41.7276 31.8914 43.5909 33.9747 45.8855 33.9747C46.705 33.9747 47.4684 33.7073 48.1154 33.2458V33.3708C50.5351 31.1582 52.4717 31.6025 52.9418 34.2939V40.9059C52.9418 41.7125 52.2819 42.3724 51.4753 42.3724H44.3026C42.1417 43.0107 41.926 44.8352 43.9661 47.0651H43.9316C44.3932 47.7121 44.6606 48.4755 44.6606 49.295C44.6563 51.5982 42.5773 53.4615 40.0153 53.4615Z" fill="#008DD2"/>
</g>
</g>
<defs>
<clipPath id="clip0_771_20751">
<rect width="53" height="58" fill="white"/>
</clipPath>
<clipPath id="clip1_771_20751">
<rect width="53" height="48.4928" fill="white" transform="translate(-0.0625 4.96875)"/>
</clipPath>
</defs>
</svg>
