<svg width="44" height="44" viewBox="0 0 44 44" fill="none" xmlns="http://www.w3.org/2000/svg">
<rect width="44" height="44" rx="12" fill="black"/>
<path d="M28.2492 11.1297C27.8836 11.3125 27.7289 11.7391 27.8976 12.1188C28.0242 12.4047 28.1976 12.5125 28.732 12.6391L29.1867 12.7469L21.0117 17.3547C16.5164 19.8907 12.7383 22.0282 12.6164 22.1032C12.3351 22.2813 12.232 22.4875 12.2601 22.8391C12.2836 23.1625 12.3867 23.3219 12.6633 23.4578C12.8133 23.5328 12.9211 23.5516 13.0711 23.5375C13.2351 23.5188 14.9601 22.5625 21.5883 18.8219C26.1586 16.2438 29.9039 14.1532 29.9133 14.1719C29.9226 14.1907 29.8945 14.35 29.8523 14.5235C29.7633 14.9219 29.7633 15.1235 29.857 15.325C30.082 15.8032 30.7476 15.8875 31.1086 15.4891C31.2492 15.3344 31.282 15.2172 31.6008 13.8813C31.8539 12.8219 31.9383 12.4 31.9148 12.2875C31.868 12.0625 31.7133 11.8375 31.5586 11.7532C31.3992 11.6735 28.7414 11.0313 28.5633 11.0313C28.4976 11.0313 28.357 11.0735 28.2492 11.1297Z" fill="#606778"/>
<path d="M28.1406 17.5844C27.5125 17.7485 26.9875 18.1891 26.6969 18.7985L26.5234 19.1641V25.0281V30.8875L26.7063 31.2625C27.025 31.9047 27.5969 32.3547 28.2719 32.4953C28.6562 32.575 30.4422 32.561 30.8078 32.4766C31.4547 32.3219 31.9844 31.8906 32.2938 31.2625L32.4766 30.8875V25.0281V19.1641L32.2984 18.7938C32.0031 18.1703 31.4594 17.725 30.8078 17.5703C30.3625 17.4672 28.5578 17.4766 28.1406 17.5844Z" fill="#606778"/>
<path d="M20.7016 22.0656C20.05 22.225 19.5109 22.6656 19.2063 23.2891L19.0234 23.6641V27.2781V30.8875L19.2063 31.2625C19.525 31.9047 20.0969 32.3547 20.7719 32.4953C21.1562 32.575 22.9422 32.561 23.3078 32.4766C23.9547 32.3219 24.4844 31.8906 24.7938 31.2625L24.9766 30.8875V27.2781V23.6641L24.7938 23.2891C24.4797 22.6469 23.9078 22.1922 23.2281 22.0516C22.8859 21.9813 21.0156 21.9906 20.7016 22.0656Z" fill="#606778"/>
<path d="M13.2023 25.4406C12.2883 25.6656 11.6086 26.4438 11.5008 27.4C11.4398 27.9063 11.4398 30.0203 11.5008 30.5266C11.6133 31.511 12.3211 32.2985 13.2727 32.4953C13.657 32.575 15.443 32.561 15.8086 32.4766C16.718 32.261 17.393 31.4828 17.5008 30.5313C17.5617 30.0203 17.5617 27.9063 17.5008 27.4C17.3883 26.4203 16.6711 25.6235 15.7289 25.4266C15.3867 25.3563 13.5164 25.3656 13.2023 25.4406Z" fill="#606778"/>
</svg>
