<svg width="54" height="54" viewBox="0 0 54 54" fill="none" xmlns="http://www.w3.org/2000/svg">
<g clip-path="url(#clip0_771_20716)">
<path d="M23.3279 24.6133C23.6467 24.6133 23.9601 24.6384 24.2657 24.6862L29.0699 19.8822C27.3568 18.967 25.4019 18.4473 23.328 18.4473C16.5865 18.4473 11.1016 23.932 11.1016 30.6737C11.1016 37.4154 16.5865 42.9002 23.328 42.9002C30.0696 42.9002 35.5543 37.4154 35.5543 30.6737C35.5543 28.5997 35.0347 26.645 34.1194 24.932L29.3155 29.7361C29.3632 30.0418 29.3883 30.3549 29.3883 30.6738C29.3883 34.0155 26.6697 36.7342 23.3281 36.7342C19.9865 36.7342 17.2678 34.0155 17.2678 30.6738C17.2678 27.3322 19.9862 24.6133 23.3279 24.6133Z" fill="#008DD2"/>
<path d="M37.7138 21.3362C39.4652 24.0256 40.4844 27.2334 40.4844 30.6749C40.4844 40.1367 32.7871 47.8343 23.3255 47.8343C13.8638 47.8343 6.16607 40.1367 6.16607 30.6751C6.16607 21.2134 13.8637 13.5157 23.3253 13.5157C26.7673 13.5157 29.9748 14.5351 32.6643 16.2866L37.0925 11.8583C33.2312 9.02552 28.4706 7.34961 23.3255 7.34961C10.4637 7.34961 0 17.8134 0 30.6751C0 43.5367 10.4637 54.0007 23.3255 54.0007C36.1871 54.0007 46.6505 43.5367 46.6505 30.6751C46.6505 25.5298 44.975 20.7692 42.1422 16.9081L37.7138 21.3362Z" fill="#008DD2"/>
<path d="M53.9388 7.35428C53.7935 6.89476 53.404 6.55483 52.9293 6.47225L48.3264 5.67279L47.5271 1.06979C47.4444 0.595081 47.1043 0.205676 46.6451 0.0603801C46.1858 -0.0853058 45.684 0.0372677 45.3431 0.37811L41.7838 3.93729C41.5419 4.17932 41.406 4.5077 41.4057 4.84997L41.406 10.1601L22.1759 29.3896C21.5039 30.0618 21.5039 31.1511 22.1759 31.8233C22.8483 32.4952 23.9377 32.4955 24.6097 31.8233L43.8391 12.5937H49.1493C49.4914 12.5937 49.8198 12.4577 50.0617 12.2157L53.621 8.65624C53.9619 8.31565 54.0844 7.81354 53.9388 7.35428Z" fill="#008DD2"/>
</g>
<defs>
<clipPath id="clip0_771_20716">
<rect width="54" height="54" fill="white"/>
</clipPath>
</defs>
</svg>
