<svg width="24" height="24" viewBox="0 0 24 24" fill="none" xmlns="http://www.w3.org/2000/svg">
<path fill-rule="evenodd" clip-rule="evenodd" d="M5.80775 1.34961C4.62412 1.34961 3.48894 1.81969 2.65183 2.65648C1.81472 3.49327 1.3442 4.62827 1.34375 5.8119V17.7159C1.34375 18.8998 1.81406 20.0353 2.65123 20.8724C3.48839 21.7096 4.62382 22.1799 5.80775 22.1799H17.7118C18.8954 22.1794 20.0304 21.7089 20.8672 20.8718C21.704 20.0347 22.174 18.8995 22.174 17.7159V5.8119C22.1736 4.62856 21.7033 3.49383 20.8666 2.65708C20.0298 1.82034 18.8951 1.35006 17.7118 1.34961H5.80775ZM18.9958 5.81875C18.9958 6.15975 18.8603 6.48677 18.6192 6.72789C18.3781 6.96901 18.051 7.10447 17.71 7.10447C17.369 7.10447 17.042 6.96901 16.8009 6.72789C16.5598 6.48677 16.4243 6.15975 16.4243 5.81875C16.4243 5.47776 16.5598 5.15073 16.8009 4.90962C17.042 4.6685 17.369 4.53304 17.71 4.53304C18.051 4.53304 18.3781 4.6685 18.6192 4.90962C18.8603 5.15073 18.9958 5.47776 18.9958 5.81875ZM11.7615 8.19818C10.8158 8.19818 9.90883 8.57385 9.24012 9.24255C8.57142 9.91125 8.19575 10.8182 8.19575 11.7639C8.19575 12.7096 8.57142 13.6165 9.24012 14.2852C9.90883 14.9539 10.8158 15.3296 11.7615 15.3296C12.7072 15.3296 13.6141 14.9539 14.2828 14.2852C14.9515 13.6165 15.3272 12.7096 15.3272 11.7639C15.3272 10.8182 14.9515 9.91125 14.2828 9.24255C13.6141 8.57385 12.7072 8.19818 11.7615 8.19818ZM6.47975 11.7639C6.47975 10.3636 7.03603 9.02056 8.02623 8.03037C9.01642 7.04018 10.3594 6.4839 11.7598 6.4839C13.1601 6.4839 14.5031 7.04018 15.4933 8.03037C16.4835 9.02056 17.0398 10.3636 17.0398 11.7639C17.0398 13.1642 16.4835 14.5072 15.4933 15.4974C14.5031 16.4876 13.1601 17.0439 11.7598 17.0439C10.3594 17.0439 9.01642 16.4876 8.02623 15.4974C7.03603 14.5072 6.47975 13.1642 6.47975 11.7639Z" fill="white"/>
</svg>
