<svg width="32" height="29" viewBox="0 0 32 29" fill="none" xmlns="http://www.w3.org/2000/svg">
<path d="M4.96191 6.06718C4.325 6.70408 3.81978 7.4602 3.47508 8.29235C3.13039 9.12451 2.95298 10.0164 2.95298 10.9171C2.95298 11.8179 3.13039 12.7098 3.47508 13.5419C3.81978 14.3741 4.325 15.1302 4.96191 15.7671L16.6707 27.4759L28.3795 15.7671C29.6658 14.4808 30.3884 12.7362 30.3884 10.9171C30.3884 9.09805 29.6658 7.35347 28.3795 6.06718C27.0932 4.78089 25.3486 4.05826 23.5295 4.05826C21.7104 4.05826 19.9659 4.78089 18.6796 6.06718L16.6707 8.07605L14.6618 6.06718C14.0249 5.43027 13.2688 4.92504 12.4366 4.58035C11.6045 4.23565 10.7126 4.05824 9.81187 4.05824C8.91115 4.05824 8.01924 4.23565 7.18709 4.58035C6.35493 4.92504 5.59881 5.43027 4.96191 6.06718Z" stroke="#3D57DA" stroke-width="3.01122" stroke-linecap="round" stroke-linejoin="round"/>
</svg>
