<svg width="32" height="32" viewBox="0 0 32 32" fill="none" xmlns="http://www.w3.org/2000/svg">
<rect width="32" height="32" rx="16" fill="#008DD2"/>
<path fill-rule="evenodd" clip-rule="evenodd" d="M16.6048 12.3724C16.7459 12.2313 16.9746 12.2313 17.1157 12.3724L20.4877 15.7444C20.5555 15.8122 20.5936 15.9041 20.5936 15.9999C20.5936 16.0957 20.5555 16.1876 20.4877 16.2554L17.1157 19.6274C16.9746 19.7685 16.7459 19.7685 16.6048 19.6274C16.4637 19.4864 16.4637 19.2576 16.6048 19.1165L19.36 16.3612H11.5613C11.3618 16.3612 11.2 16.1994 11.2 15.9999C11.2 15.8004 11.3618 15.6386 11.5613 15.6386H19.36L16.6048 12.8834C16.4637 12.7423 16.4637 12.5135 16.6048 12.3724Z" fill="white"/>
</svg>
