<svg width="40" height="40" viewBox="0 0 40 40" fill="none" xmlns="http://www.w3.org/2000/svg">
<rect width="40" height="40" rx="20" fill="#DBEAFE"/>
<path d="M24.7138 23.8806L21.178 27.4164C21.0234 27.5712 20.8398 27.694 20.6376 27.7778C20.4355 27.8616 20.2189 27.9047 20.0001 27.9047C19.7813 27.9047 19.5647 27.8616 19.3625 27.7778C19.1604 27.694 18.9768 27.5712 18.8222 27.4164L15.2855 23.8806C14.3532 22.9482 13.7183 21.7603 13.4611 20.4671C13.2039 19.1739 13.3359 17.8335 13.8405 16.6154C14.3451 15.3972 15.1996 14.356 16.2959 13.6235C17.3922 12.891 18.6812 12.5 19.9997 12.5C21.3182 12.5 22.6071 12.891 23.7034 13.6235C24.7998 14.356 25.6542 15.3972 26.1588 16.6154C26.6634 17.8335 26.7955 19.1739 26.5383 20.4671C26.2811 21.7603 25.6462 22.9482 24.7138 23.8806Z" stroke="#2563EB" stroke-width="1.66667" stroke-linecap="round" stroke-linejoin="round"/>
<path d="M22.5 19.168C22.5 19.831 22.2366 20.4669 21.7678 20.9357C21.2989 21.4046 20.663 21.668 20 21.668C19.337 21.668 18.7011 21.4046 18.2322 20.9357C17.7634 20.4669 17.5 19.831 17.5 19.168C17.5 18.5049 17.7634 17.869 18.2322 17.4002C18.7011 16.9314 19.337 16.668 20 16.668C20.663 16.668 21.2989 16.9314 21.7678 17.4002C22.2366 17.869 22.5 18.5049 22.5 19.168Z" stroke="#2563EB" stroke-width="1.66667" stroke-linecap="round" stroke-linejoin="round"/>
</svg>
