<svg width="32" height="32" viewBox="0 0 32 32" fill="none" xmlns="http://www.w3.org/2000/svg">
<rect width="32" height="32" rx="16" transform="matrix(-1 0 0 1 32 0)" fill="#9CA3AF" fill-opacity="0.2"/>
<path fill-rule="evenodd" clip-rule="evenodd" d="M15.3952 12.3724C15.2541 12.2313 15.0254 12.2313 14.8843 12.3724L11.5123 15.7444C11.4445 15.8122 11.4064 15.9041 11.4064 15.9999C11.4064 16.0957 11.4445 16.1876 11.5123 16.2554L14.8843 19.6274C15.0254 19.7685 15.2541 19.7685 15.3952 19.6274C15.5363 19.4864 15.5363 19.2576 15.3952 19.1165L12.64 16.3612H20.4387C20.6382 16.3612 20.8 16.1994 20.8 15.9999C20.8 15.8004 20.6382 15.6386 20.4387 15.6386H12.64L15.3952 12.8834C15.5363 12.7423 15.5363 12.5135 15.3952 12.3724Z" fill="black"/>
</svg>
