<svg width="24" height="24" viewBox="0 0 24 24" fill="none" xmlns="http://www.w3.org/2000/svg">
<path d="M17.6895 11.2509H3.75C3.55109 11.2509 3.36032 11.33 3.21967 11.4706C3.07902 11.6113 3 11.802 3 12.0009C3 12.1999 3.07902 12.3906 3.21967 12.5313C3.36032 12.6719 3.55109 12.7509 3.75 12.7509H17.6895L12.219 18.2199C12.0782 18.3608 11.9991 18.5518 11.9991 18.7509C11.9991 18.9501 12.0782 19.1411 12.219 19.2819C12.3598 19.4228 12.5508 19.5019 12.75 19.5019C12.9492 19.5019 13.1402 19.4228 13.281 19.2819L20.031 12.5319C20.1008 12.4623 20.1563 12.3795 20.1941 12.2884C20.2319 12.1973 20.2513 12.0996 20.2513 12.0009C20.2513 11.9023 20.2319 11.8046 20.1941 11.7135C20.1563 11.6224 20.1008 11.5396 20.031 11.4699L13.281 4.71995C13.1402 4.57912 12.9492 4.5 12.75 4.5C12.5508 4.5 12.3598 4.57912 12.219 4.71995C12.0782 4.86078 11.9991 5.05178 11.9991 5.25095C11.9991 5.45011 12.0782 5.64112 12.219 5.78195L17.6895 11.2509Z" fill="white"/>
</svg>
