<svg width="44" height="44" viewBox="0 0 44 44" fill="none" xmlns="http://www.w3.org/2000/svg">
<rect width="44" height="44" rx="12" fill="black"/>
<path d="M16.7656 19.6172V27.2344H24.3828H32V19.6172V12H24.3828H16.7656V19.6172ZM29.6562 16.1016V17.8594H29.0703H28.4844V17.0898V16.3164L24.793 20.0078L21.1016 23.6992L21.8633 23.7109L22.625 23.7188V24.3047V24.8906H20.8672H19.1094V23.1328V21.375H19.6953H20.2812V22.1445V22.918L23.9727 19.2266L27.6641 15.5352L26.9023 15.5234L26.1406 15.5156V14.9297V14.3438H27.8984H29.6562V16.1016Z" fill="#606778"/>
<path d="M12 27.2734V32H16.7266H21.4531V30.2031V28.4062H18.5234H15.5938V25.4766V22.5469H13.7969H12V27.2734Z" fill="#606778"/>
</svg>
