<svg width="20" height="20" viewBox="0 0 20 20" fill="none" xmlns="http://www.w3.org/2000/svg">
<path d="M2.5 6.66797L9.075 11.0513C9.34888 11.234 9.67075 11.3316 10 11.3316C10.3292 11.3316 10.6511 11.234 10.925 11.0513L17.5 6.66797M4.16667 15.8346H15.8333C16.2754 15.8346 16.6993 15.659 17.0118 15.3465C17.3244 15.0339 17.5 14.61 17.5 14.168V5.83464C17.5 5.39261 17.3244 4.96868 17.0118 4.65612C16.6993 4.34356 16.2754 4.16797 15.8333 4.16797H4.16667C3.72464 4.16797 3.30072 4.34356 2.98816 4.65612C2.67559 4.96868 2.5 5.39261 2.5 5.83464V14.168C2.5 14.61 2.67559 15.0339 2.98816 15.3465C3.30072 15.659 3.72464 15.8346 4.16667 15.8346Z" stroke="#737373" stroke-width="1.66667" stroke-linecap="round" stroke-linejoin="round"/>
</svg>
