<svg width="24" height="24" viewBox="0 0 24 24" fill="none" xmlns="http://www.w3.org/2000/svg">
<mask id="mask0_771_20863" style="mask-type:luminance" maskUnits="userSpaceOnUse" x="0" y="0" width="24" height="24">
<path d="M20 0H4C1.79086 0 0 1.79086 0 4V20C0 22.2091 1.79086 24 4 24H20C22.2091 24 24 22.2091 24 20V4C24 1.79086 22.2091 0 20 0Z" fill="white"/>
</mask>
<g mask="url(#mask0_771_20863)">
<path fill-rule="evenodd" clip-rule="evenodd" d="M0.544967 2.73005C0 3.79961 0 5.19974 0 8V16C0 18.8003 0 20.2004 0.544967 21.27C1.02433 22.2108 1.78924 22.9757 2.73005 23.455C3.79961 24 5.19974 24 8 24H16C18.8003 24 20.2004 24 21.27 23.455C22.2108 22.9757 22.9757 22.2108 23.455 21.27C24 20.2004 24 18.8003 24 16V8C24 5.19974 24 3.79961 23.455 2.73005C22.9757 1.78924 22.2108 1.02433 21.27 0.544967C20.2004 0 18.8003 0 16 0H8C5.19974 0 3.79961 0 2.73005 0.544967C1.78924 1.02433 1.02433 1.78924 0.544967 2.73005ZM16.4244 18.2507H19.1727L19.1738 13.3953C19.1738 11.0117 18.6603 9.17947 15.8748 9.17947C15.3522 9.16007 14.8341 9.28279 14.3757 9.53456C13.9173 9.78633 13.5357 10.1577 13.2717 10.6092H13.2348V9.39963H10.5964V18.2504H13.3447V13.872C13.3447 12.7174 13.5637 11.5992 14.9951 11.5992C16.4061 11.5992 16.4244 12.9204 16.4244 13.9467V18.2507ZM6.60941 7.92116C6.87172 8.09636 7.18008 8.18984 7.49551 8.18979C7.70495 8.18975 7.91233 8.14846 8.10581 8.06827C8.29929 7.98809 8.47509 7.87058 8.62316 7.72245C8.77123 7.57432 8.88866 7.39848 8.96877 7.20497C9.04889 7.01145 9.09011 6.80405 9.09007 6.59461C9.09001 6.27917 8.99642 5.97083 8.82113 5.70858C8.64584 5.44633 8.39672 5.24196 8.10528 5.12129C7.81384 5.00063 7.49317 4.96911 7.18382 5.0307C6.87446 5.0923 6.59031 5.24425 6.36731 5.46734C6.14431 5.69043 5.99246 5.97464 5.93098 6.28403C5.8695 6.59342 5.90114 6.91409 6.02191 7.2055C6.14267 7.4969 6.34711 7.74596 6.60941 7.92116ZM6.11853 18.2507H8.86963V9.39963H6.11853V18.2507Z" fill="white"/>
</g>
</svg>
