<svg width="60" height="60" viewBox="0 0 60 60" fill="none" xmlns="http://www.w3.org/2000/svg">
<path d="M53.3238 10.3067H45.7313L45.8754 10.0231C46.3453 9.10439 46.1695 7.99463 45.4383 7.26338L42.4781 4.30322C42.1238 3.9477 41.6656 3.714 41.1697 3.63585C40.6739 3.55771 40.1661 3.63916 39.7195 3.86846L37.1555 5.1751C37.0008 5.25244 36.8648 5.25596 36.7113 5.18447C36.3211 5.004 35.9297 4.84111 35.5465 4.70049C35.3848 4.63955 35.2945 4.5458 35.2418 4.38291L34.3512 1.64307C34.0277 0.645801 33.1406 0.00244141 32.0918 0.00244141H27.9059C26.8699 0.00244141 25.9605 0.662207 25.643 1.64307L24.7512 4.3876C24.6996 4.54814 24.6082 4.64189 24.4512 4.70049C24.068 4.84111 23.6742 5.004 23.2828 5.18564C23.1305 5.25713 22.9934 5.25361 22.8434 5.17744L20.277 3.86963C19.8304 3.63982 19.3224 3.55797 18.8263 3.63592C18.3302 3.71386 17.8717 3.94756 17.5172 4.30322L14.557 7.26338C13.8246 7.9958 13.65 9.10439 14.1187 10.022L14.2641 10.3079H6.675C4.83633 10.3079 3.33984 11.8044 3.33984 13.6431V34.8235C3.33984 35.3415 3.75937 35.7599 4.27617 35.7599C4.79414 35.7599 5.2125 35.3403 5.2125 34.8235V13.6419C5.2125 12.8356 5.86875 12.1806 6.67383 12.1806H15.2191L15.4312 12.5966C15.5062 12.7431 15.5086 12.8743 15.4336 13.0349C15.252 13.4356 15.0949 13.8153 14.952 14.1985C14.8945 14.3544 14.7961 14.4481 14.6391 14.5009L11.8934 15.3915C11.4162 15.5463 11.0005 15.8484 10.7059 16.2543C10.4113 16.6603 10.253 17.1493 10.2539 17.6509V21.8368C10.2539 22.8681 10.9125 23.7763 11.8945 24.0962L14.6332 24.9845C14.7961 25.0384 14.8945 25.1321 14.9531 25.2915C15.0937 25.6712 15.2508 26.0509 15.4371 26.4587C15.5086 26.6134 15.5074 26.7423 15.4289 26.8946L14.1211 29.4634C13.6512 30.3821 13.827 31.4919 14.5582 32.2231L17.5184 35.1833C17.873 35.5382 18.3309 35.7718 18.8265 35.8505C19.322 35.9292 19.8297 35.8491 20.277 35.6216L22.8469 34.3103C22.9957 34.2341 23.1328 34.2329 23.2852 34.3021C23.6766 34.4837 24.0691 34.6466 24.4477 34.7849C24.6105 34.8458 24.702 34.9396 24.7535 35.1036L25.6441 37.8435C25.7984 38.3219 26.1008 38.739 26.5075 39.0345C26.9142 39.33 27.4043 39.4887 27.907 39.4876H32.093C33.1254 39.4876 34.0336 38.8267 34.3523 37.8435L35.2441 35.0989C35.2957 34.9384 35.3871 34.8446 35.5441 34.786C35.9273 34.6454 36.3199 34.4825 36.7066 34.3032C36.8637 34.2317 37.002 34.2341 37.1508 34.3079L39.7219 35.6216C40.6418 36.0868 41.7504 35.911 42.4781 35.1821L45.4383 32.222C46.1707 31.4907 46.3465 30.381 45.8766 29.4634L44.5676 26.8923C44.4914 26.7423 44.4879 26.6075 44.5594 26.454C44.7281 26.0896 44.8863 25.7075 45.0434 25.2833C45.1008 25.1274 45.1992 25.0337 45.3562 24.981L48.1008 24.0903C48.5779 23.9356 48.9937 23.6335 49.2883 23.2275C49.5829 22.8215 49.7411 22.3326 49.7402 21.831V17.645C49.7402 16.6138 49.0816 15.7056 48.0996 15.3856L45.3609 14.4974C45.198 14.4435 45.0996 14.3497 45.041 14.1903C44.8852 13.7696 44.727 13.3888 44.5559 13.0196C44.4855 12.8708 44.4891 12.736 44.5652 12.586L44.775 12.1747H53.3203C54.1277 12.1747 54.7852 12.8298 54.7852 13.636V41.5759H5.21367V37.7462C5.21367 37.2282 4.79414 36.8099 4.27734 36.8099C3.76055 36.8099 3.34102 37.2294 3.34102 37.7462V47.4763C3.34102 49.3173 4.8375 50.8149 6.67617 50.8149H22.8059L21.7195 58.1192H18.7406C18.2227 58.1192 17.8043 58.5388 17.8043 59.0556C17.8043 59.5724 18.2238 59.9919 18.7406 59.9919H41.2617C41.7797 59.9919 42.198 59.5724 42.198 59.0556C42.198 58.5388 41.7785 58.1192 41.2617 58.1192H38.2793L37.193 50.8149H53.3238C55.1648 50.8149 56.6625 49.3173 56.6625 47.4763V13.6419C56.6625 11.8021 55.1648 10.3067 53.3238 10.3067ZM44.7797 16.2833L47.5219 17.1728C47.7387 17.2431 47.8687 17.4224 47.8687 17.6509V21.8368C47.8687 22.0653 47.7387 22.2435 47.523 22.3149L44.7738 23.2067C44.0684 23.4399 43.5398 23.9497 43.2867 24.6399C43.1473 25.0138 43.0078 25.3524 42.8602 25.6712C42.5473 26.345 42.5602 27.0821 42.8977 27.7466L44.2078 30.32C44.3109 30.5216 44.2758 30.7396 44.1141 30.9013L41.1539 33.8614C40.9922 34.0231 40.773 34.0571 40.5715 33.9552L37.9992 32.6403C37.3395 32.3075 36.6035 32.2935 35.925 32.604C35.5805 32.7634 35.2348 32.9063 34.8949 33.0317C34.1953 33.2919 33.6855 33.8239 33.4605 34.5271L32.5699 37.2681C32.4996 37.486 32.3203 37.6161 32.093 37.6161H27.907C27.6762 37.6161 27.4969 37.486 27.4266 37.2669L26.5371 34.5294C26.3109 33.8228 25.8012 33.2907 25.0969 33.0282C24.7617 32.9052 24.4172 32.7622 24.068 32.6005C23.7445 32.4528 23.407 32.379 23.0719 32.379C22.7062 32.379 22.3418 32.4669 21.9973 32.6415L19.4285 33.9517C19.2234 34.056 19.0043 34.0208 18.8426 33.8591L15.8824 30.8989C15.7207 30.7372 15.6844 30.5192 15.7887 30.3153L17.0953 27.7489C17.4375 27.088 17.4516 26.3485 17.1398 25.6759C16.9758 25.3149 16.8352 24.9751 16.7109 24.6411C16.4566 23.9474 15.9281 23.4376 15.2168 23.2021L12.4746 22.3126C12.2578 22.2423 12.1277 22.063 12.1277 21.8345V17.6485C12.1277 17.42 12.2578 17.2419 12.4734 17.1704L15.2227 16.2786C15.9281 16.0454 16.4566 15.5345 16.7098 14.8454C16.8352 14.5067 16.9758 14.1669 17.1352 13.8165C17.4527 13.138 17.4387 12.3985 17.0977 11.7388L16.6453 10.8505C16.6336 10.8259 16.6219 10.8013 16.609 10.7778L15.7887 9.16533C15.6855 8.96377 15.7207 8.7458 15.8824 8.58408L18.8426 5.62393C19.0031 5.46338 19.2211 5.42939 19.4262 5.53369L21.9984 6.84502C22.6641 7.18018 23.4012 7.19307 24.0727 6.88135C24.4172 6.72197 24.7617 6.579 25.1016 6.45479C25.8012 6.19463 26.3109 5.6626 26.5359 4.95947L27.4266 2.21846C27.4969 2.00283 27.6762 1.87275 27.907 1.87275H32.093C32.3215 1.87275 32.5008 2.00166 32.5711 2.21846L33.4605 4.95596C33.6867 5.6626 34.1965 6.19463 34.8961 6.45479C34.8973 6.45479 34.8996 6.45596 34.9008 6.45596C35.2359 6.579 35.5805 6.72197 35.925 6.88135C36.5977 7.19307 37.3336 7.18018 38.0039 6.84268L40.5727 5.53369C40.7766 5.42939 40.9934 5.46338 41.1539 5.6251L44.1141 8.58525C44.277 8.74815 44.3121 8.96494 44.2078 9.16885L42.8988 11.7411C42.5602 12.4067 42.5473 13.145 42.8602 13.8142C43.009 14.1341 43.1484 14.4728 43.2855 14.8431C43.541 15.538 44.0695 16.0478 44.7797 16.2833ZM36.3855 58.1239H23.6133L24.6996 50.8196H35.298L36.3855 58.1239ZM53.3238 48.9458H6.675C5.86875 48.9458 5.21367 48.2884 5.21367 47.481V43.4544H54.7887V47.481C54.7887 48.2896 54.1312 48.9458 53.3238 48.9458ZM41.5242 19.7438C41.5242 22.6161 40.4602 25.3688 38.5289 27.4935C36.8895 29.2958 34.7437 30.5192 32.3906 31.0173L33.1969 31.6513C33.6035 31.9712 33.675 32.5595 33.3551 32.9661C33.2675 33.078 33.1557 33.1684 33.0279 33.2305C32.9002 33.2927 32.76 33.3249 32.618 33.3247C32.4152 33.3247 32.2113 33.2591 32.0402 33.1243L29.4223 31.0677C29.0156 30.7478 28.9441 30.1595 29.2641 29.7528L31.3207 27.1349C31.6406 26.7282 32.2289 26.6567 32.6355 26.9767C33.0422 27.2966 33.1137 27.8849 32.7937 28.2915L32.1105 29.1622C36.4805 28.1954 39.6516 24.3306 39.6516 19.7438C39.6516 15.9341 37.4027 12.4712 33.9223 10.9231C33.45 10.7134 33.2367 10.1591 33.4477 9.68682C33.6574 9.21455 34.2117 9.00127 34.684 9.21221C38.8395 11.0603 41.5242 15.1946 41.5242 19.7438ZM27.941 12.7114C27.7383 12.7114 27.5344 12.6458 27.3621 12.511C27.1668 12.3573 27.0406 12.1323 27.0112 11.8855C26.9817 11.6388 27.0515 11.3904 27.2051 11.195L27.8895 10.3243C23.5254 11.2923 20.3508 15.17 20.3508 19.7427C20.3508 23.5501 22.5984 27.0118 26.0766 28.5599C26.5488 28.7708 26.7621 29.3239 26.5512 29.7962C26.45 30.0233 26.2629 30.2009 26.0309 30.2901C25.7988 30.3794 25.5409 30.3728 25.3137 30.272C21.1605 28.4228 18.4758 24.2896 18.4758 19.7427C18.4758 14.2384 22.3289 9.57432 27.6059 8.4669L26.7996 7.83291C26.6045 7.6794 26.4782 7.45473 26.4485 7.20821C26.4189 6.9617 26.4882 6.71349 26.6414 6.51807C26.7949 6.32292 27.0196 6.19665 27.2661 6.16699C27.5126 6.13733 27.7608 6.2067 27.9562 6.35986L30.5777 8.42002C30.7734 8.57353 30.9 8.79854 30.9293 9.0458C30.9586 9.29307 30.8895 9.5415 30.7359 9.73604L28.6758 12.354C28.5886 12.4656 28.4771 12.5559 28.3498 12.6178C28.2224 12.6797 28.0826 12.7118 27.941 12.7114ZM29.2477 23.495C29.168 23.495 29.0859 23.4845 29.0051 23.4634C28.765 23.3991 28.5604 23.2421 28.436 23.027C28.3116 22.8119 28.2777 22.5562 28.3418 22.3161L29.8465 16.6923C29.9801 16.1931 30.4934 15.8954 30.9937 16.029C31.4941 16.1626 31.7906 16.6759 31.657 17.1763L30.1523 22.8001C30.0988 22.9992 29.9812 23.1752 29.8177 23.3008C29.6542 23.4264 29.4538 23.4947 29.2477 23.495ZM26.8758 18.231L25.1566 19.7438L26.8758 21.2567C27.2637 21.5989 27.3023 22.1907 26.9602 22.5786C26.8724 22.6786 26.7642 22.7587 26.643 22.8135C26.5217 22.8683 26.3901 22.8965 26.257 22.8962C26.0367 22.8962 25.8164 22.8188 25.6383 22.663L23.1199 20.447C22.9184 20.2688 22.8023 20.0134 22.8023 19.7438C22.8023 19.4743 22.9184 19.2188 23.1199 19.0407L25.6383 16.8247C26.0262 16.4825 26.618 16.5212 26.9602 16.9091C27.3023 17.2981 27.2648 17.8899 26.8758 18.231ZM33.123 21.2567L34.8422 19.7438L33.123 18.231C32.7352 17.8888 32.6965 17.297 33.0387 16.9091C33.1199 16.8166 33.2185 16.7411 33.3289 16.6868C33.4393 16.6325 33.5593 16.6006 33.6821 16.5927C33.8049 16.5849 33.928 16.6013 34.0444 16.6411C34.1608 16.681 34.2683 16.7433 34.3605 16.8247L36.8789 19.0407C37.0805 19.2188 37.1965 19.4743 37.1965 19.7438C37.1965 20.0134 37.0805 20.2688 36.8789 20.447L34.3605 22.663C34.1898 22.8138 33.9696 22.8968 33.7418 22.8962C33.4816 22.8962 33.2238 22.7884 33.0387 22.5786C32.6965 22.1896 32.734 21.5978 33.123 21.2567Z" fill="#1E40AF"/>
</svg>
