<svg width="326" height="56" viewBox="0 0 326 56" fill="none" xmlns="http://www.w3.org/2000/svg">
<path d="M173.343 4.66663H159.343C158.054 4.66663 157.01 5.71129 157.01 6.99996V11.6666C157.01 12.9553 158.054 14 159.343 14H173.343C174.632 14 175.676 12.9553 175.676 11.6666V6.99996C175.676 5.71129 174.632 4.66663 173.343 4.66663Z" stroke="#22C55E" stroke-width="2" stroke-linecap="round" stroke-linejoin="round"/>
<path d="M175.678 9.33337H180.344C181.582 9.33337 182.769 9.82504 183.644 10.7002C184.519 11.5754 185.011 12.7624 185.011 14V46.6667C185.011 47.9044 184.519 49.0914 183.644 49.9665C182.769 50.8417 181.582 51.3334 180.344 51.3334H152.344C151.107 51.3334 149.92 50.8417 149.045 49.9665C148.169 49.0914 147.678 47.9044 147.678 46.6667V14C147.678 12.7624 148.169 11.5754 149.045 10.7002C149.92 9.82504 151.107 9.33337 152.344 9.33337H157.011" stroke="#22C55E" stroke-width="2" stroke-linecap="round" stroke-linejoin="round"/>
<path d="M159.344 32.6667L164.01 37.3333L173.344 28" stroke="#22C55E" stroke-width="2" stroke-linecap="round" stroke-linejoin="round"/>
</svg>
