<svg width="60" height="60" viewBox="0 0 60 60" fill="none" xmlns="http://www.w3.org/2000/svg">
<path d="M30.0023 1.87806C29.5006 1.86216 29.0007 1.94719 28.5325 2.12812C28.0642 2.30905 27.637 2.58218 27.2763 2.93132C26.9156 3.28045 26.6287 3.69848 26.4326 4.1606C26.2365 4.62272 26.1352 5.11952 26.1347 5.62152C26.1342 6.12353 26.2346 6.62052 26.4298 7.08301C26.625 7.5455 26.9112 7.96407 27.2712 8.31388C27.6313 8.6637 28.0579 8.93764 28.5259 9.11945C28.9938 9.30127 29.4935 9.38725 29.9952 9.3723C30.4876 9.37276 30.9751 9.27626 31.4301 9.08829C31.8852 8.90032 32.2987 8.62457 32.6471 8.27678C32.9956 7.92899 33.2721 7.51598 33.461 7.06132C33.6498 6.60666 33.7472 6.11926 33.7477 5.62695C33.7481 5.13464 33.6516 4.64705 33.4637 4.19204C33.2757 3.73702 32.9999 3.32349 32.6522 2.97504C32.3044 2.6266 31.8914 2.35006 31.4367 2.16124C30.982 1.97241 30.4946 1.87852 30.0023 1.87806ZM30.0023 3.74896C30.4995 3.74802 30.9766 3.9446 31.3288 4.29547C31.681 4.64633 31.8794 5.12273 31.8803 5.61986C31.8813 6.11699 31.6847 6.59414 31.3338 6.94633C30.9829 7.29852 30.5065 7.49691 30.0094 7.49785C29.5123 7.49879 29.0351 7.30221 28.6829 6.95134C28.3308 6.60048 28.1324 6.12408 28.1314 5.62695C28.1305 5.12981 28.3271 4.65267 28.6779 4.30048C29.0288 3.94828 29.5052 3.7499 30.0023 3.74896ZM23.6951 7.50139L11.1445 13.2877C10.0106 13.7838 10.7689 15.5201 11.9276 14.9885L24.4853 9.20576C25.3605 8.81599 25.1337 7.48368 24.1522 7.41281C23.9944 7.40333 23.8369 7.43154 23.6951 7.50139ZM48.0736 14.9956C49.2322 15.5236 49.9905 13.7909 48.8602 13.2913L36.306 7.50139C36.1639 7.43245 36.0066 7.40075 35.8489 7.40927C34.8709 7.48013 34.6441 8.81244 35.5194 9.20221L48.0736 14.9956ZM27.5432 12.572C27.0248 12.821 26.6252 13.2639 26.4306 13.8051C26.2747 14.1736 26.218 14.3826 26.0231 14.62C25.8282 14.8574 25.4739 15.1622 24.6589 15.5059C23.8369 15.8531 23.362 15.9027 23.0431 15.8815C22.7278 15.8602 22.54 15.7645 22.1821 15.6228C21.6725 15.3966 21.0976 15.3651 20.5663 15.5342C19.9391 15.7397 19.3261 16.2394 18.6387 16.9339C17.8946 17.6886 17.4446 18.3087 17.2674 18.8792C17.111 19.4102 17.1551 19.9802 17.3914 20.4808C17.5367 20.8351 17.6324 21.03 17.6607 21.3418C17.6891 21.6536 17.6466 22.132 17.3135 22.9541C16.9804 23.7761 16.6792 24.1482 16.4418 24.3502C16.208 24.5557 16.0024 24.6194 15.6552 24.7683C15.1354 24.9541 14.7034 25.3267 14.4434 25.8136C14.167 26.3451 14.0536 27.0892 14.0642 28.1238C14.0571 29.0735 14.1386 29.853 14.4434 30.4341C14.704 30.9206 15.1358 31.293 15.6552 31.4794C16.0024 31.6282 16.1973 31.6885 16.4347 31.8905C16.6686 32.096 16.9804 32.4716 17.3135 33.2936C17.643 34.098 17.6856 34.5728 17.6607 34.8882C17.6359 35.1964 17.5474 35.3842 17.4056 35.7208C17.1745 36.1989 17.1157 36.7422 17.2391 37.2587C17.3864 37.7577 17.643 38.2177 17.9903 38.6052C17.3525 39.654 16.8493 40.7666 16.5021 41.9714C15.8304 40.9836 14.9311 40.1718 13.88 39.6044C14.3676 39.0297 14.7094 38.3457 14.8763 37.6107C15.0432 36.8756 15.0302 36.1112 14.8385 35.3822C14.6468 34.6532 14.2821 33.9813 13.7752 33.4234C13.2683 32.8656 12.6343 32.4383 11.9269 32.1778C11.2196 31.9173 10.4599 31.8314 9.71225 31.9273C8.96462 32.0232 8.25117 32.2981 7.63249 32.7286C7.0138 33.1592 6.50815 33.7327 6.15847 34.4004C5.80879 35.0682 5.62541 35.8104 5.62389 36.5642C5.62035 37.7229 6.04201 38.7823 6.74714 39.6044C5.55357 40.249 4.55732 41.2054 3.86465 42.3717C3.17198 43.538 2.80885 44.8705 2.814 46.227V47.3254C2.814 49.6747 4.70616 51.5633 7.03061 51.5633H13.5894C14.4575 51.5633 15.2654 51.3046 15.9387 50.8475V54.3838C15.9387 55.5071 16.293 56.6091 17.1505 57.3354C18.008 58.0618 19.2659 58.2886 20.701 58.0087L20.7647 57.9945L29.9952 55.5071L39.2647 58.0016C40.7317 58.2851 41.9541 58.0902 42.8506 57.3354C43.7081 56.6126 44.0625 55.5141 44.0625 54.3944V50.8511C44.7357 51.3082 45.5436 51.5597 46.4117 51.5597H52.9705C55.295 51.5597 57.1871 49.6747 57.1871 47.329V46.227C57.1871 43.3604 55.6103 40.8765 53.254 39.6008C53.9626 38.7859 54.3808 37.7229 54.3808 36.5642C54.3823 35.8077 54.201 35.062 53.8521 34.3907C53.5032 33.7194 52.9971 33.1425 52.377 32.7091C51.757 32.2757 51.0413 31.9987 50.291 31.9016C49.5407 31.8046 48.7781 31.8905 48.0682 32.1519C47.3583 32.4133 46.7221 32.8426 46.2139 33.403C45.7057 33.9634 45.3406 34.6384 45.1497 35.3705C44.9588 36.1025 44.9478 36.8699 45.1176 37.6071C45.2873 38.3443 45.6329 39.0296 46.1247 39.6044C45.0759 40.1713 44.1758 40.9757 43.4991 41.9785C43.1555 40.7916 42.655 39.656 42.0108 38.6016C42.3583 38.2156 42.615 37.7568 42.762 37.2587C42.8855 36.7422 42.8266 36.1989 42.5955 35.7208C42.4538 35.3842 42.3652 35.1964 42.3404 34.8846C42.3156 34.5728 42.3581 34.098 42.6876 33.2901C43.0207 32.4716 43.3325 32.096 43.5699 31.8905C43.8073 31.6885 43.9951 31.6282 44.3495 31.4794C44.8689 31.293 45.3007 30.9206 45.5613 30.4341C45.8625 29.853 45.9475 29.077 45.9404 28.1238C45.9475 27.0856 45.8341 26.3451 45.5613 25.8136C45.301 25.3269 44.8691 24.9544 44.3495 24.7683C43.9951 24.6194 43.7967 24.5557 43.5593 24.3502C43.3219 24.1482 43.0207 23.7761 42.6876 22.9541C42.3545 22.132 42.312 21.6536 42.3404 21.3418C42.3687 21.03 42.4644 20.8387 42.6132 20.4808C42.8502 19.9804 42.8944 19.4101 42.7372 18.8792C42.5601 18.3122 42.11 17.6886 41.3659 16.9339C40.6785 16.2394 40.062 15.7433 39.4348 15.5342C38.7403 15.3075 38.1804 15.4846 37.8226 15.6264C37.4647 15.7681 37.2733 15.8602 36.958 15.8815C36.6391 15.9027 36.1643 15.8531 35.3457 15.5059C34.5272 15.1622 34.1764 14.8574 33.9815 14.62C33.7867 14.3826 33.7264 14.1736 33.5705 13.8051C33.3759 13.2639 32.9763 12.821 32.4579 12.572C31.852 12.2779 31.122 12.1857 30.0023 12.1822C28.8791 12.1822 28.1527 12.2779 27.5432 12.572ZM5.62389 13.1212C5.13181 13.121 4.64451 13.2176 4.1898 13.4057C3.73509 13.5938 3.32188 13.8697 2.97376 14.2174C2.62564 14.5652 2.34944 14.9782 2.16091 15.4327C1.97239 15.8872 1.87523 16.3745 1.875 16.8665C1.87477 17.3586 1.97146 17.8459 2.15956 18.3006C2.34765 18.7553 2.62347 19.1686 2.97125 19.5167C3.31904 19.8648 3.73199 20.141 4.18652 20.3295C4.64106 20.518 5.12827 20.6152 5.62035 20.6154C6.61415 20.6159 7.56743 20.2216 8.27048 19.5192C8.97354 18.8168 9.36877 17.8639 9.36924 16.8701C9.36971 15.8763 8.97538 14.923 8.27299 14.2199C7.5706 13.5169 6.61769 13.1217 5.62389 13.1212ZM54.3772 13.1212C53.3829 13.1203 52.429 13.5143 51.7253 14.2167C51.0216 14.9191 50.6257 15.8723 50.6248 16.8665C50.6238 17.8608 51.0179 18.8147 51.7203 19.5184C52.4227 20.2222 53.3759 20.618 54.3701 20.619C54.8624 20.6194 55.35 20.5229 55.805 20.335C56.2601 20.147 56.6736 19.8712 57.022 19.5235C57.3705 19.1757 57.647 18.7627 57.8358 18.308C58.0247 17.8533 58.1221 17.3659 58.1226 16.8736C58.123 16.3813 58.0265 15.8937 57.8386 15.4387C57.6506 14.9837 57.3748 14.5702 57.0271 14.2217C56.6793 13.8733 56.2662 13.5967 55.8116 13.4079C55.3569 13.2191 54.8695 13.1217 54.3772 13.1212ZM31.6429 14.2551C31.7705 14.3153 31.7846 14.4181 31.8413 14.5315C31.9476 14.7795 32.1071 15.2862 32.5288 15.8035C32.9504 16.3209 33.5953 16.8098 34.6087 17.2386C35.6186 17.6638 36.4229 17.802 37.0891 17.7559C37.7517 17.7099 38.2407 17.476 38.5064 17.3732C38.6623 17.313 38.7438 17.2776 38.8466 17.313C38.9812 17.3555 39.3214 17.5292 40.0301 18.2485C40.7033 18.9323 40.9018 19.3044 40.9443 19.439C40.9726 19.5489 40.9266 19.6481 40.8734 19.7686C40.7848 19.9812 40.5297 20.5127 40.473 21.1753C40.4163 21.8379 40.5368 22.6458 40.9478 23.6557C41.3624 24.6726 41.8301 25.3352 42.3333 25.771C42.8364 26.2033 43.3538 26.3841 43.616 26.4974C43.7648 26.5612 43.8357 26.5683 43.8924 26.6746C43.9491 26.788 44.0802 27.153 44.0695 28.1238C44.0766 29.0345 43.9668 29.4207 43.8924 29.5695C43.8357 29.6794 43.7294 29.7007 43.616 29.7467C43.3502 29.8601 42.8364 30.0408 42.3333 30.4766C41.8301 30.9089 41.3624 31.5751 40.9514 32.585C40.5474 33.5806 40.4199 34.3744 40.473 35.0299C40.5226 35.6854 40.7388 36.1283 40.8663 36.4402C40.923 36.5961 40.9762 36.6811 40.9478 36.7874C40.9259 36.8556 40.8986 36.9219 40.8663 36.9858C39.4616 35.2854 37.6776 33.9383 35.6576 33.0527C36.8127 31.731 37.5001 30.0089 37.5001 28.1274C37.4973 26.1397 36.7072 24.234 35.3026 22.8275C33.8981 21.421 31.9936 20.6281 30.0059 20.6225C25.8743 20.6225 22.5045 23.9923 22.5045 28.1238C22.5045 30.0089 23.192 31.731 24.3471 33.0491C22.327 33.9345 20.5429 35.2817 19.1383 36.9823C19.1065 36.9194 19.0792 36.8543 19.0568 36.7874C19.0285 36.6811 19.0852 36.5961 19.1383 36.4402C19.2694 36.1319 19.482 35.6854 19.5316 35.0299C19.5813 34.3744 19.4608 33.5806 19.0568 32.585C18.6458 31.5716 18.1781 30.9089 17.6749 30.4766C17.1682 30.0408 16.6544 29.8601 16.3922 29.7467C16.2753 29.7007 16.1725 29.6794 16.1158 29.5695C16.0379 29.4207 15.928 29.0345 15.9351 28.1238C15.928 27.153 16.0556 26.788 16.1123 26.6746C16.1725 26.5683 16.2434 26.5612 16.3922 26.4974C16.6544 26.3841 17.1682 26.2033 17.6714 25.771C18.1781 25.3352 18.6458 24.6726 19.0568 23.6592C19.4679 22.6458 19.5883 21.8379 19.5316 21.1753C19.475 20.5127 19.2198 19.9847 19.1312 19.7686C19.0816 19.6481 19.032 19.5489 19.0604 19.439C19.1029 19.3044 19.3013 18.9323 19.9746 18.2485C20.6832 17.5292 21.027 17.3555 21.1616 17.313C21.2644 17.2776 21.3423 17.313 21.4982 17.3732C21.764 17.4795 22.2565 17.7099 22.9156 17.7559C23.5817 17.802 24.3861 17.6638 25.3959 17.2386C26.4093 16.8098 27.0578 16.3173 27.4794 15.8035C27.8976 15.2862 28.0606 14.7795 28.1633 14.5279C28.2236 14.4181 28.2342 14.3153 28.3653 14.2551C28.5141 14.1842 29.0102 14.0602 30.0059 14.0602C30.998 14.0602 31.4905 14.1807 31.6429 14.2551ZM5.62389 14.9992C5.87662 14.9875 6.12911 15.0271 6.36613 15.1156C6.60315 15.2041 6.8198 15.3396 7.00303 15.5141C7.18627 15.6885 7.33229 15.8983 7.4323 16.1307C7.53231 16.3631 7.58423 16.6133 7.58495 16.8663C7.58567 17.1193 7.53516 17.3698 7.43648 17.6028C7.33779 17.8357 7.19296 18.0463 7.01072 18.2218C6.82848 18.3973 6.6126 18.5341 6.37608 18.6239C6.13957 18.7138 5.88732 18.7548 5.63452 18.7445C5.15186 18.7249 4.6954 18.5198 4.36032 18.1718C4.02525 17.8239 3.83745 17.36 3.83607 16.8769C3.8347 16.3939 4.01987 15.929 4.35296 15.5791C4.68606 15.2293 5.14135 15.0215 5.62389 14.9992ZM54.3772 14.9992C54.8744 14.9992 55.3511 15.1967 55.7027 15.5482C56.0542 15.8997 56.2517 16.3765 56.2517 16.8736C56.2517 17.3708 56.0542 17.8475 55.7027 18.1991C55.3511 18.5506 54.8744 18.7481 54.3772 18.7481C53.9 18.7187 53.452 18.5085 53.1244 18.1602C52.7969 17.8119 52.6145 17.3517 52.6145 16.8736C52.6145 16.3955 52.7969 15.9354 53.1244 15.5871C53.452 15.2388 53.9 15.0285 54.3772 14.9992ZM7.31408 22.1462C7.16469 22.1372 7.01532 22.1641 6.87843 22.2246C6.74154 22.2851 6.62109 22.3775 6.52714 22.494C6.43318 22.6105 6.36842 22.7478 6.33828 22.8944C6.30813 23.0409 6.31346 23.1926 6.35383 23.3367L8.0015 29.5802C8.28497 30.8381 10.1807 30.3385 9.81217 29.1018L8.16449 22.8619C8.1174 22.6676 8.00953 22.4934 7.85658 22.3647C7.70362 22.236 7.51357 22.1594 7.31408 22.1462ZM52.687 22.1462C52.4874 22.1589 52.297 22.2352 52.144 22.364C51.9909 22.4929 51.8832 22.6674 51.8366 22.8619L50.1889 29.1018C49.8204 30.342 51.7126 30.8381 52.0032 29.5802L53.6508 23.3367C53.6913 23.1923 53.6966 23.0403 53.6663 22.8934C53.636 22.7465 53.5709 22.609 53.4765 22.4925C53.3821 22.3759 53.2612 22.2836 53.1239 22.2234C52.9865 22.1631 52.8367 22.1366 52.687 22.1462ZM30.0023 22.497C31.4947 22.497 32.9259 23.0898 33.9811 24.145C35.0364 25.2003 35.6292 26.6315 35.6292 28.1238C35.6292 29.6162 35.0364 31.0474 33.9811 32.1027C32.9259 33.1579 31.4947 33.7507 30.0023 33.7507C28.51 33.7507 27.0788 33.1579 26.0235 32.1027C24.9683 31.0474 24.3754 29.6162 24.3754 28.1238C24.3754 26.6315 24.9683 25.2003 26.0235 24.145C27.0788 23.0898 28.51 22.497 30.0023 22.497ZM10.3118 33.7472C11.0575 33.7472 11.7726 34.0434 12.2999 34.5707C12.8272 35.098 13.1235 35.8132 13.1235 36.5589C13.1235 37.3046 12.8272 38.0197 12.2999 38.547C11.7726 39.0743 11.0575 39.3705 10.3118 39.3705C9.56608 39.3705 8.85092 39.0743 8.32363 38.547C7.79634 38.0197 7.50011 37.3046 7.50011 36.5589C7.50011 35.8132 7.79634 35.098 8.32363 34.5707C8.85092 34.0434 9.56608 33.7472 10.3118 33.7472ZM49.6893 33.7472C50.0669 33.7333 50.4435 33.7956 50.7965 33.9305C51.1495 34.0653 51.4717 34.2698 51.7439 34.5319C52.0161 34.794 52.2328 35.1082 52.3809 35.4558C52.529 35.8034 52.6056 36.1773 52.6061 36.5552C52.6066 36.933 52.5309 37.3071 52.3837 37.6551C52.2364 38.0031 52.0206 38.3179 51.749 38.5806C51.4774 38.8434 51.1557 39.0487 50.8031 39.1845C50.4504 39.3202 50.0741 39.3834 49.6964 39.3705C48.9679 39.3456 48.2776 39.0389 47.7707 38.5151C47.2639 37.9913 46.9801 37.2912 46.9792 36.5623C46.9783 35.8334 47.2603 35.1326 47.7658 34.6075C48.2713 34.0824 48.9609 33.774 49.6893 33.7472ZM23.44 49.175V45.9293C23.4116 44.7069 21.5939 44.7069 21.562 45.9293V49.6569L21.3317 49.7172C20.1163 50.0255 20.5805 51.8432 21.7923 51.5349L35.9658 47.8959C36.2145 47.8289 36.474 47.8115 36.7294 47.8448C36.9849 47.8781 37.2312 47.9613 37.4545 48.0898C37.6777 48.2183 37.8735 48.3895 38.0306 48.5936C38.1877 48.7978 38.303 49.0309 38.37 49.2796C38.437 49.5283 38.4544 49.7878 38.4211 50.0432C38.3878 50.2986 38.3046 50.545 38.1761 50.7682C38.0476 50.9915 37.8764 51.1872 37.6723 51.3443C37.4681 51.5014 37.235 51.6168 36.9863 51.6838L20.3395 56.1626H20.3325C19.2694 56.3681 18.6954 56.1803 18.3623 55.9004C18.0257 55.6169 17.8167 55.1244 17.8167 54.3767V45.9364C17.8167 40.5894 21.2254 36.0787 25.9416 34.4311C27.1517 35.2092 28.5601 35.6229 29.9988 35.6229C31.4375 35.6229 32.8458 35.2092 34.056 34.4311C36.4398 35.2647 38.5042 36.8211 39.9618 38.8833C41.4194 40.9456 42.1976 43.411 42.188 45.9364V54.3909C42.188 55.1279 41.9754 55.6169 41.6423 55.9004C41.3057 56.1838 40.7352 56.3681 39.6687 56.1626L33.6095 54.5326L37.4718 53.4909C38.2006 53.295 38.8555 52.8886 39.3545 52.3224C39.8535 51.7563 40.1745 51.0556 40.2774 50.308C40.3803 49.5603 40.2604 48.799 39.9328 48.1191C39.6052 47.4392 39.0844 46.871 38.4356 46.4856V45.9258C38.4072 44.7033 36.5895 44.7139 36.5611 45.9577C36.2032 45.9436 35.845 45.9818 35.4981 46.071L23.44 49.175ZM33.7512 40.3131C32.5288 40.3414 32.5288 42.1592 33.7512 42.1875H36.5611C37.7836 42.1592 37.7836 40.3379 36.5611 40.3095L33.7512 40.3131ZM8.49757 40.88C9.07317 41.1215 9.69112 41.2459 10.3153 41.2459C10.9395 41.2459 11.5575 41.1215 12.1331 40.88C13.2468 41.2615 14.2129 41.9826 14.8955 42.9417C15.5781 43.9008 15.9429 45.0497 15.9387 46.227V47.3254C15.9415 47.6354 15.8827 47.9428 15.7659 48.2299C15.649 48.517 15.4763 48.778 15.2577 48.9979C15.0392 49.2177 14.7792 49.392 14.4928 49.5106C14.2065 49.6292 13.8994 49.6898 13.5894 49.6888H7.03061C6.72137 49.6884 6.41527 49.6268 6.12993 49.5076C5.84458 49.3884 5.58562 49.2139 5.36794 48.9943C5.15027 48.7746 4.97817 48.5141 4.86155 48.2277C4.74494 47.9413 4.68611 47.6346 4.68844 47.3254V46.227C4.68844 43.7501 6.26879 41.6312 8.49757 40.88ZM47.868 40.88C48.4438 41.1231 49.0625 41.2484 49.6876 41.2484C50.3126 41.2484 50.9313 41.1231 51.5071 40.88C53.7323 41.6277 55.3127 43.7501 55.3127 46.227V47.3254C55.3127 48.6187 54.2851 49.6888 52.974 49.6888H46.4117C46.102 49.6888 45.7953 49.6276 45.5094 49.5087C45.2234 49.3897 44.9638 49.2154 44.7455 48.9958C44.5272 48.7761 44.3544 48.5154 44.2372 48.2288C44.12 47.9421 44.0606 47.6351 44.0625 47.3254V46.227C44.0625 43.7537 45.6428 41.6312 47.868 40.88Z" fill="#1E40AF"/>
</svg>
