<svg width="60" height="60" viewBox="0 0 60 60" fill="none" xmlns="http://www.w3.org/2000/svg">
<path d="M37.5001 51.8562C30.0509 54.4116 21.7248 52.95 15.5913 48.0543C15.7548 47.6966 15.8393 47.308 15.8391 46.9147C15.8391 45.3962 14.6037 44.1608 13.0852 44.1608C12.6918 44.1606 12.3029 44.2452 11.9451 44.4089C7.87893 39.3168 6.16225 32.7039 7.19749 26.2903L8.43405 28.0025C8.51008 28.108 8.61011 28.1938 8.72587 28.2529C8.84163 28.3121 8.9698 28.3428 9.09979 28.3426C9.25083 28.3425 9.39891 28.3007 9.5277 28.2218C9.65649 28.1429 9.761 28.0299 9.8297 27.8954C9.89841 27.7609 9.92864 27.6101 9.91707 27.4595C9.9055 27.3089 9.85257 27.1644 9.76413 27.042L7.42963 23.8093C7.36659 23.722 7.28695 23.6479 7.19526 23.5913C7.10357 23.5348 7.00163 23.4968 6.89527 23.4797C6.78891 23.4625 6.68021 23.4665 6.57539 23.4914C6.47056 23.5162 6.37167 23.5615 6.28436 23.6246L3.05174 25.9591C2.87633 26.0869 2.75866 26.2789 2.72452 26.4932C2.69038 26.7075 2.74253 26.9266 2.86957 27.1025C2.99661 27.2784 3.18818 27.3969 3.40233 27.4319C3.61649 27.4668 3.83579 27.4156 4.01221 27.2892L5.55346 26.1762C4.49022 33.0284 6.35643 40.0798 10.7211 45.5041C10.4655 45.9303 10.3307 46.4179 10.3312 46.9148C10.3312 48.4334 11.5666 49.6688 13.0851 49.6688C13.6005 49.6688 14.083 49.5261 14.4959 49.2787C18.9371 52.851 24.4624 54.7351 30.0486 54.7351C32.7338 54.7351 35.433 54.3 38.0323 53.4082C38.1342 53.3732 38.2282 53.3186 38.309 53.2473C38.3898 53.176 38.4557 53.0895 38.5031 52.9927C38.5504 52.8959 38.5782 52.7908 38.5849 52.6833C38.5916 52.5757 38.5771 52.468 38.5421 52.3661C38.5072 52.2641 38.4525 52.1701 38.3813 52.0893C38.31 52.0085 38.2235 51.9426 38.1267 51.8952C38.03 51.8479 37.9248 51.82 37.8173 51.8133C37.7098 51.8066 37.602 51.8212 37.5001 51.8562ZM11.9719 46.9147C11.9719 46.3009 12.4714 45.8014 13.0852 45.8014C13.699 45.8014 14.1985 46.3009 14.1985 46.9147C14.1985 47.5286 13.6992 48.028 13.0852 48.028C12.4713 48.0279 11.9719 47.5286 11.9719 46.9147ZM22.4998 8.14371C29.9497 5.58773 38.2757 7.04941 44.4087 11.9454C44.2452 12.3031 44.1606 12.6918 44.1608 13.0852C44.1608 14.6037 45.3962 15.8391 46.9147 15.8391C47.3212 15.8391 47.707 15.7499 48.0547 15.5911C52.1458 20.7061 53.8556 27.2333 52.8036 33.7113L51.5658 31.9973C51.4381 31.8219 51.2461 31.7043 51.0318 31.6701C50.8175 31.636 50.5984 31.6881 50.4225 31.8152C50.2465 31.9422 50.1281 32.1338 50.0931 32.3479C50.0581 32.5621 50.1094 32.7814 50.2358 32.9578L52.5701 36.1904C52.6332 36.2778 52.7128 36.3519 52.8045 36.4084C52.8962 36.465 52.9981 36.503 53.1045 36.5201C53.2109 36.5373 53.3196 36.5333 53.4244 36.5084C53.5292 36.4835 53.6281 36.4382 53.7154 36.3751L56.948 34.0406C57.1235 33.9129 57.2411 33.7209 57.2753 33.5066C57.3094 33.2923 57.2572 33.0732 57.1302 32.8973C57.0032 32.7213 56.8116 32.6029 56.5974 32.5679C56.3833 32.5329 56.164 32.5842 55.9876 32.7105L54.4447 33.8246C54.9619 30.4837 54.7928 27.0247 53.9424 23.7605C53.0657 20.3953 51.4584 17.2058 49.2788 14.495C49.5343 14.069 49.669 13.5815 49.6685 13.0848C49.6685 11.5663 48.4331 10.3309 46.9146 10.3309C46.4177 10.3304 45.9301 10.4651 45.5041 10.7207C38.9287 5.43106 29.975 3.84422 21.9673 6.59156C21.7615 6.66218 21.5922 6.81166 21.4965 7.00714C21.4009 7.20261 21.3869 7.42806 21.4575 7.63389C21.5281 7.83971 21.6776 8.00906 21.8731 8.10467C22.0686 8.20028 22.294 8.21432 22.4998 8.14371ZM48.028 13.0852C48.028 13.699 47.5285 14.1984 46.9147 14.1984C46.3008 14.1984 45.8014 13.699 45.8014 13.0852C45.8014 12.4713 46.3008 11.9719 46.9147 11.9719C47.5285 11.9719 48.028 12.4713 48.028 13.0852ZM9.42721 3.34488V1.875C9.42721 1.65744 9.51364 1.44879 9.66748 1.29495C9.82132 1.14111 10.03 1.05469 10.2475 1.05469C10.4651 1.05469 10.6737 1.14111 10.8276 1.29495C10.9814 1.44879 11.0678 1.65744 11.0678 1.875V3.34488C11.0678 3.56244 10.9814 3.77109 10.8276 3.92493C10.6737 4.07877 10.4651 4.1652 10.2475 4.1652C10.03 4.1652 9.82132 4.07877 9.66748 3.92493C9.51364 3.77109 9.42721 3.56244 9.42721 3.34488ZM4.70327 3.58043C4.64855 3.4871 4.61284 3.38387 4.59819 3.27669C4.58353 3.1695 4.59022 3.06048 4.61787 2.95589C4.64553 2.8513 4.69359 2.75321 4.75931 2.66727C4.82502 2.58134 4.90708 2.50925 5.00077 2.45515C5.09446 2.40106 5.19792 2.36604 5.3052 2.35209C5.41248 2.33815 5.52146 2.34556 5.62587 2.37391C5.73027 2.40225 5.82804 2.45097 5.91354 2.51725C5.99903 2.58353 6.07058 2.66607 6.12405 2.76012L6.85893 4.03312C6.91364 4.12645 6.94936 4.22968 6.96401 4.33687C6.97867 4.44405 6.97198 4.55308 6.94432 4.65767C6.91667 4.76226 6.86861 4.86034 6.80289 4.94628C6.73718 5.03222 6.65512 5.10431 6.56143 5.1584C6.46774 5.21249 6.36428 5.24752 6.257 5.26146C6.14971 5.27541 6.04074 5.26799 5.93633 5.23965C5.83193 5.2113 5.73416 5.16259 5.64866 5.09631C5.56316 5.03002 5.49162 4.94748 5.43815 4.85344L4.70327 3.58043ZM2.73792 8.15426L1.46491 7.41937C1.27648 7.31061 1.13899 7.13145 1.08266 6.92131C1.02633 6.71116 1.05579 6.48725 1.16456 6.29883C1.27332 6.11041 1.45248 5.97291 1.66262 5.91658C1.87277 5.86025 2.09668 5.88971 2.2851 5.99848L3.55811 6.73336C3.74653 6.84212 3.88403 7.02129 3.94036 7.23143C3.99669 7.44157 3.96723 7.66548 3.85846 7.85391C3.7497 8.04233 3.57054 8.17983 3.36039 8.23615C3.15025 8.29248 2.92634 8.26302 2.73792 8.15426ZM13.6361 4.03312L14.3711 2.76012C14.4807 2.57324 14.6597 2.43729 14.8691 2.38192C15.0785 2.32655 15.3014 2.35627 15.489 2.46458C15.6765 2.57289 15.8137 2.75101 15.8704 2.96006C15.9272 3.16911 15.899 3.39212 15.7919 3.58043L15.0569 4.85344C15.0031 4.94678 14.9314 5.0286 14.846 5.09422C14.7605 5.15984 14.6629 5.20797 14.5589 5.23585C14.4548 5.26374 14.3462 5.27083 14.2394 5.25673C14.1326 5.24263 14.0296 5.20761 13.9364 5.15367C13.748 5.04489 13.6105 4.86572 13.5542 4.65558C13.4979 4.44544 13.5273 4.22153 13.6361 4.03312ZM16.6367 7.85391C16.5828 7.76061 16.5479 7.65762 16.5338 7.55081C16.5198 7.44401 16.5269 7.33548 16.5548 7.23143C16.5827 7.12738 16.6308 7.02984 16.6964 6.94438C16.762 6.85892 16.8438 6.78721 16.9371 6.73336L18.2101 5.99848C18.3985 5.88971 18.6224 5.86025 18.8325 5.91658C19.0427 5.97291 19.2218 6.11041 19.3306 6.29883C19.4394 6.48725 19.4688 6.71116 19.4125 6.92131C19.3562 7.13145 19.2187 7.31061 19.0303 7.41937L17.7573 8.15426C17.664 8.20814 17.561 8.24312 17.4542 8.25719C17.3473 8.27126 17.2388 8.26414 17.1347 8.23625C17.0307 8.20836 16.9331 8.16023 16.8477 8.09463C16.7622 8.02903 16.6905 7.94723 16.6367 7.85391ZM15.6399 10.6056C15.6399 7.6323 13.2209 5.21332 10.2475 5.21332C7.27413 5.21332 4.85526 7.6323 4.85526 10.6056C4.85526 12.1144 5.34592 12.8736 5.82042 13.608C6.24487 14.2649 6.68186 14.9419 6.88225 16.4176C6.44022 16.6971 6.14514 17.1889 6.14514 17.7495V19.3807C6.14514 20.2357 6.82952 20.9338 7.67913 20.9563C7.7117 21.7732 8.38647 22.4277 9.21124 22.4277H11.2839C12.1087 22.4277 12.7833 21.7732 12.816 20.9563C13.6658 20.9339 14.3501 20.2358 14.3501 19.3807V17.7495C14.3501 17.1888 14.0551 16.697 13.613 16.4175C13.8134 14.9418 14.2503 14.2648 14.6748 13.6079C15.1492 12.8738 15.6399 12.1144 15.6399 10.6056ZM12.7094 19.3164H11.9969C11.7793 19.3164 11.5707 19.4028 11.4169 19.5566C11.263 19.7105 11.1766 19.9191 11.1766 20.1367V20.7872H9.31858V20.1367C9.31858 19.9191 9.23215 19.7105 9.07832 19.5566C8.92448 19.4028 8.71583 19.3164 8.49827 19.3164H7.78577V17.814H12.7094V19.3164ZM13.2967 12.7177C12.8215 13.4531 12.2437 14.3484 11.9909 16.1733H11.0678V11.93L12.6182 11.035C12.7123 10.9815 12.7948 10.9099 12.8611 10.8244C12.9274 10.7389 12.9761 10.6412 13.0044 10.5368C13.0328 10.4324 13.0402 10.3234 13.0263 10.2161C13.0123 10.1088 12.9773 10.0054 12.9232 9.91168C12.8691 9.818 12.797 9.73593 12.7111 9.67022C12.6251 9.6045 12.527 9.55644 12.4225 9.52879C12.3179 9.50113 12.2088 9.49444 12.1017 9.5091C11.9945 9.52375 11.8912 9.55947 11.7979 9.61418L10.2475 10.5093L8.69713 9.61418C8.60381 9.55947 8.50058 9.52375 8.39339 9.5091C8.28621 9.49444 8.17718 9.50113 8.07259 9.52879C7.968 9.55644 7.86992 9.6045 7.78398 9.67022C7.69804 9.73593 7.62595 9.818 7.57186 9.91168C7.51777 10.0054 7.48274 10.1088 7.4688 10.2161C7.45485 10.3234 7.46227 10.4324 7.49061 10.5368C7.51896 10.6412 7.56767 10.7389 7.63395 10.8244C7.70024 10.9099 7.78278 10.9815 7.87682 11.035L9.42721 11.93V16.1733H8.50413C8.25135 14.3484 7.6735 13.453 7.19831 12.7177C6.77526 12.0629 6.49577 11.6304 6.49577 10.6056C6.49577 8.53687 8.17881 6.85395 10.2475 6.85395C12.3162 6.85395 13.9993 8.53687 13.9993 10.6056C13.9993 11.6305 13.7198 12.063 13.2967 12.7177ZM57.4992 46.1982C56.9613 46.1982 56.5169 45.9007 56.3104 45.4023C56.1039 44.9039 56.2079 44.3793 56.5883 43.9987C57.1521 43.4348 57.1521 42.5175 56.5883 41.9536L55.2407 40.6061C54.6768 40.0423 53.7594 40.0424 53.1956 40.6061C52.8151 40.9863 52.2903 41.0903 51.7921 40.8838C51.2937 40.6773 50.9962 40.2329 50.9962 39.695C50.9962 38.8976 50.3474 38.2488 49.55 38.2488H47.6445C46.8471 38.2488 46.1983 38.8976 46.1983 39.695C46.1983 40.2329 45.9008 40.6773 45.4024 40.8838C44.904 41.0904 44.3792 40.9863 43.9988 40.6059C43.4349 40.042 42.5174 40.0421 41.9537 40.6059L40.6062 41.9534C40.4715 42.0873 40.3647 42.2467 40.2921 42.4222C40.2194 42.5978 40.1822 42.786 40.1827 42.9759C40.1827 43.3623 40.3332 43.7255 40.6062 43.9986C40.9866 44.379 41.0905 44.9037 40.884 45.4021C40.6775 45.9005 40.2331 46.198 39.6952 46.198C38.8978 46.198 38.2491 46.8468 38.2491 47.6442V49.5497C38.2491 50.3471 38.8979 50.9959 39.6952 50.9959C40.2331 50.9959 40.6775 51.2934 40.884 51.7918C41.0905 52.2902 40.9865 52.8149 40.6062 53.1953C40.3331 53.4684 40.1827 53.8316 40.1827 54.218C40.1827 54.6043 40.3332 54.9675 40.6062 55.2405L41.9537 56.588C42.2268 56.8611 42.59 57.0116 42.9764 57.0116C43.3627 57.0116 43.7259 56.8611 43.9991 56.5881C44.3801 56.207 44.9049 56.1025 45.4031 56.3088C45.9011 56.5151 46.1984 56.96 46.1984 57.4991C46.1984 58.2966 46.8472 58.9453 47.6446 58.9453H49.5501C50.3476 58.9453 50.9963 58.2966 50.9963 57.4991C50.9963 56.9612 51.2939 56.5168 51.7923 56.3104C52.2905 56.1039 52.8153 56.2077 53.1957 56.5881C53.7595 57.152 54.6771 57.152 55.241 56.5881L56.5884 55.2407C57.1522 54.6769 57.1523 53.7594 56.5884 53.1954C56.208 52.815 56.1042 52.2904 56.3106 51.792C56.5171 51.2936 56.9615 50.996 57.4994 50.996C58.2969 50.996 58.9456 50.3473 58.9456 49.5498V47.6443C58.9453 46.847 58.2965 46.1982 57.4992 46.1982ZM57.3046 49.3615C56.1824 49.4318 55.2317 50.1089 54.7946 51.1642C54.3575 52.2195 54.551 53.3706 55.2948 54.2137L54.2137 55.2948C53.3705 54.5509 52.2193 54.3574 51.1641 54.7946C50.109 55.2316 49.4317 56.1825 49.3614 57.3047H47.8327C47.7625 56.1814 47.0856 55.2301 46.0307 54.7931C44.9759 54.3561 43.8244 54.5501 42.9805 55.2948L41.8994 54.2137C42.6433 53.3705 42.8368 52.2193 42.3996 51.1642C41.9626 50.109 41.0117 49.4318 39.8896 49.3615V47.8328C41.0118 47.7625 41.9626 47.0854 42.3996 46.0301C42.8367 44.9748 42.6433 43.8237 41.8994 42.9805L42.9805 41.8995C43.8237 42.6434 44.975 42.8368 46.03 42.3996C47.0853 41.9625 47.7625 41.0119 47.8327 39.8896H49.3614C49.4316 41.0119 50.1089 41.9625 51.1641 42.3996C52.2192 42.8367 53.3705 42.6434 54.2137 41.8995L55.2948 42.9805C54.5508 43.8238 54.3575 44.9749 54.7946 46.0301C55.2316 47.0852 56.1824 47.7625 57.3046 47.8328V49.3615ZM48.5971 43.1989C45.6206 43.1989 43.199 45.6206 43.199 48.5972C43.199 51.5738 45.6207 53.9953 48.5971 53.9953C51.5737 53.9953 53.9954 51.5736 53.9954 48.5972C53.9954 45.6205 51.5738 43.1989 48.5971 43.1989ZM48.5971 52.3547C46.5253 52.3547 44.8396 50.6691 44.8396 48.5972C44.8396 46.5252 46.5253 44.8396 48.5971 44.8396C50.6691 44.8396 52.3547 46.5252 52.3547 48.5972C52.3547 50.6691 50.6691 52.3547 48.5971 52.3547ZM30.4101 14.9225C30.2854 14.8506 30.1439 14.8127 29.9999 14.8127C29.856 14.8127 29.7145 14.8506 29.5898 14.9225L17.1475 22.1061C17.0228 22.1781 16.9193 22.2817 16.8473 22.4064C16.7753 22.5311 16.7374 22.6725 16.7374 22.8165V37.1836C16.7374 37.3276 16.7753 37.469 16.8473 37.5938C16.9193 37.7184 17.0228 37.822 17.1475 37.894L29.5898 45.0773C29.7145 45.1493 29.856 45.1872 29.9999 45.1872C30.1439 45.1872 30.2854 45.1493 30.4101 45.0773L42.8524 37.8939C42.9771 37.8219 43.0806 37.7183 43.1526 37.5936C43.2246 37.4689 43.2625 37.3275 43.2625 37.1835V22.8165C43.2625 22.6725 43.2246 22.5311 43.1526 22.4064C43.0806 22.2817 42.9771 22.1781 42.8524 22.1061L30.4101 14.9225ZM29.9999 16.58L40.8016 22.8164L37.9517 24.4618L27.1501 18.2255L29.9999 16.58ZM29.9999 29.0528L19.1983 22.8165L22.0482 21.1711L32.8498 27.4075L29.9999 29.0528ZM34.4905 26.4601L23.6888 20.2238L25.5094 19.1726L36.3111 25.4089L34.4905 26.4601ZM35.3108 27.8809L37.1314 26.8298V30.9217L35.3108 31.9729V27.8809ZM18.378 24.2372L29.1796 30.4736V42.9462L18.378 36.7099V24.2372ZM30.8203 42.9462V30.4736L33.6701 28.8281V33.3935C33.6701 33.5375 33.708 33.679 33.78 33.8037C33.852 33.9284 33.9555 34.032 34.0802 34.104C34.205 34.176 34.3464 34.2139 34.4904 34.2139C34.6344 34.2139 34.7759 34.1759 34.9006 34.1039L38.3619 32.1056C38.4866 32.0336 38.5901 31.9301 38.6621 31.8054C38.7341 31.6807 38.772 31.5392 38.772 31.3952V25.8826L41.6219 24.2372V36.7098L30.8203 42.9462Z" fill="white"/>
</svg>
