<svg width="19" height="25" viewBox="0 0 19 25" fill="none" xmlns="http://www.w3.org/2000/svg">
<path fill-rule="evenodd" clip-rule="evenodd" d="M10.9919 1.8974C12.0225 2.09966 12.9808 2.50418 13.8187 3.07002L14.7361 2.15263C14.9721 1.91907 15.3549 1.91907 15.5885 2.15263L16.8478 3.41194C17.0814 3.6455 17.0814 4.02835 16.8478 4.26432L15.9304 5.17931C16.4963 6.01965 16.9008 6.97798 17.103 8.00855H18.3985C18.7283 8.00855 19.0004 8.27823 19.0004 8.61051V10.3899C19.0004 10.7222 18.7283 10.9919 18.3985 10.9919H17.103C16.9008 12.0225 16.4963 12.9808 15.9304 13.8211L16.8478 14.7361C17.0814 14.9721 17.0814 15.3549 16.8478 15.5885L16.5011 15.9352C16.4409 15.8895 16.3807 15.8437 16.3157 15.798C15.8823 15.497 15.2851 15.3068 14.7819 15.1527C14.4568 15.0515 13.9247 14.9239 13.6333 14.7722C13.4503 14.6783 13.2938 14.5796 13.1469 14.4713C14.6735 13.3492 15.6655 11.5409 15.6655 9.49902C15.6655 6.0943 12.9061 3.33489 9.49901 3.33489C6.0943 3.33489 3.33489 6.0943 3.33489 9.49902C3.33489 11.5409 4.32452 13.3492 5.85351 14.4713C5.70663 14.5796 5.55012 14.6783 5.36712 14.7722C5.07577 14.9239 4.54363 15.0515 4.21857 15.1527C3.71292 15.3068 3.11818 15.497 2.68477 15.798C2.61975 15.8437 2.55956 15.8895 2.49936 15.9352L2.15263 15.5885C1.91907 15.3549 1.91907 14.9721 2.15263 14.7361L3.07002 13.8187C2.50418 12.9784 2.09966 12.0225 1.8974 10.9919H0.601965C0.269681 10.9919 0 10.7222 0 10.3899V8.61051C0 8.27823 0.269681 8.00855 0.601965 8.00855H1.8974C2.09966 6.97798 2.50418 6.01965 3.07002 5.17931L2.15263 4.26432C1.91907 4.02835 1.91907 3.6455 2.15263 3.41194L3.41194 2.15263C3.6455 1.91907 4.02835 1.91907 4.26432 2.15263L5.18172 3.07002C6.01965 2.50418 6.97798 2.09966 8.00855 1.8974V0.601965C8.00855 0.269681 8.27823 0 8.61051 0H10.3899C10.7222 0 10.9919 0.269681 10.9919 0.601965V1.8974ZM11.1845 13.6309V14.6326C11.1845 14.8156 11.1075 14.9721 10.9654 15.0828L9.36417 16.3205L7.76054 15.0828C7.61847 14.9721 7.54142 14.8156 7.54142 14.6326V13.6092L7.41621 13.4768C7.18265 13.2312 7.05985 12.9471 7.03818 12.61L6.99965 12.0369L6.99243 12.0345C6.87926 11.9984 6.78295 11.9599 6.71312 11.8997C6.64088 11.8419 6.59273 11.7648 6.53975 11.6131C6.48678 11.459 6.42418 11.2303 6.38083 11.0256C6.33749 10.8209 6.31101 10.6403 6.29897 10.4814C6.28693 10.3249 6.28933 10.1901 6.32786 10.0865C6.36398 9.98059 6.4627 9.89631 6.53253 9.87464C6.59995 9.85297 6.63607 9.86742 6.66737 9.8602C6.69867 9.85056 6.65292 9.83371 6.65051 9.81926V9.79759C6.64329 9.79037 6.63607 9.78074 6.62884 9.7711C6.3712 9.4316 6.17857 8.76221 6.12319 8.16506C6.07022 7.56791 6.1569 7.04059 6.24359 6.51567C6.40491 6.6168 6.56624 6.71794 6.86 6.55902C7.15617 6.4001 7.58476 5.98113 8.07356 5.68978C8.56236 5.40083 9.11135 5.23951 9.6772 5.26599C10.243 5.29248 10.8257 5.50919 11.158 5.79332C11.4903 6.07985 11.5698 6.43381 11.6516 6.78776C11.9093 6.78054 12.1669 6.77572 12.3523 7.07911C12.5377 7.38251 12.6533 7.99651 12.61 8.53587C12.5666 9.07282 12.3644 9.53513 12.1621 9.77833C12.1428 9.79759 12.126 9.81926 12.1067 9.83612L12.1043 9.85297C12.1573 9.85779 12.2055 9.86742 12.2512 9.88668C12.3499 9.9228 12.439 9.99022 12.4824 10.113C12.5233 10.2382 12.5185 10.4212 12.5016 10.6018C12.4872 10.7824 12.4607 10.9654 12.4173 11.146C12.374 11.329 12.3138 11.512 12.2584 11.642C12.2055 11.772 12.1573 11.8491 12.0851 11.9093C12.0152 11.9671 11.9189 12.008 11.8057 12.0417C11.7841 12.0489 11.7624 12.0538 11.7407 12.061L11.7046 12.6148C11.6829 12.9495 11.5601 13.2312 11.3314 13.4744L11.1845 13.6309ZM7.05504 14.8493C7.18747 15.5114 7.3199 16.176 7.40177 16.7467C7.48363 17.3173 7.51253 17.7941 7.54142 18.2709C7.67626 17.9891 7.8087 17.705 7.95798 17.4931C8.10486 17.2788 8.2686 17.1392 8.42992 16.9971C8.77666 17.5437 8.89705 17.2547 9.10894 17.8423L8.81277 24.6806C6.73961 24.6806 3.57567 24.6806 1.50491 24.6806C1.66624 23.2503 1.82997 19.5254 2.09243 18.5502C2.35489 17.5774 2.71848 17.0645 3.28673 16.6672C3.85739 16.2723 5.2997 15.9978 5.8511 15.7137C6.4025 15.4296 6.72757 15.1406 7.05504 14.8493ZM11.9454 14.8493C11.813 15.5114 11.6805 16.176 11.5987 16.7467C11.5168 17.3173 11.4879 17.7941 11.459 18.2709C11.3242 17.9891 11.1917 17.705 11.0425 17.4931C10.8956 17.2788 10.7318 17.1392 10.5705 16.9971C10.2382 17.5196 10.1178 17.2812 9.87946 17.8326L10.2719 24.6806C12.3451 24.6806 15.4248 24.6806 17.4955 24.6806C17.3342 23.2503 17.1705 19.5254 16.908 18.5502C16.6455 17.5774 16.282 17.0645 15.7137 16.6672C15.143 16.2723 13.7007 15.9978 13.1493 15.7137C12.5979 15.4296 12.2729 15.1406 11.9454 14.8493Z" fill="#606778"/>
</svg>
