<svg width="3" height="4" viewBox="0 0 3 4" fill="none" xmlns="http://www.w3.org/2000/svg">
<path d="M1.49352 4L0.833863 2.98801L2.02985 2.85588L1.49352 4ZM1.2596 0C1.58321 5.44623e-05 1.82584 0.0614603 1.98777 0.183998C2.15222 0.306724 2.2344 0.469148 2.2344 0.670418C2.23434 0.805249 2.20176 0.923198 2.13555 1.02373C2.07511 1.11323 1.9931 1.18237 1.89185 1.23514C1.91722 1.24351 1.94222 1.25218 1.96623 1.26254C2.09132 1.31406 2.1882 1.39151 2.25691 1.49449C2.32809 1.59758 2.36359 1.72451 2.36359 1.87424C2.36352 2.09499 2.27644 2.26783 2.10228 2.39295C1.92804 2.51566 1.67163 2.57693 1.33301 2.57695H0V0H1.2596ZM0.5931 2.12772H1.28897C1.44343 2.12769 1.55988 2.10337 1.63837 2.05432C1.71931 2.00281 1.75967 1.92193 1.75973 1.8116C1.75973 1.7036 1.71936 1.62336 1.63837 1.57181C1.55988 1.51791 1.44334 1.49062 1.28897 1.49058H0.5931V2.12772ZM0.5931 1.05701H1.18522C1.33004 1.05701 1.44091 1.03172 1.51701 0.982628C1.59539 0.931083 1.63445 0.853661 1.63445 0.750673C1.63436 0.650267 1.59537 0.575583 1.51701 0.526548C1.44091 0.475003 1.33004 0.449229 1.18522 0.449229H0.5931V1.05701Z" fill="#E1F5FF"/>
</svg>
