<svg width="40" height="40" viewBox="0 0 40 40" fill="none" xmlns="http://www.w3.org/2000/svg">
<path d="M34.1399 34.1358C32.5774 35.6982 30.8506 36.9497 28.9595 37.8902C27.102 38.8168 25.1117 39.4488 23.06 39.7637C18.958 40.3995 14.7598 39.7448 11.0462 37.8902C9.15515 36.9497 7.42836 35.6982 5.86587 34.1349C4.30255 32.5724 3.05356 30.8498 2.11808 28.9638C0.256505 25.2488 -0.400987 21.0461 0.237061 16.94C0.551894 14.888 1.18394 12.8974 2.11054 11.0397C3.05105 9.14942 4.30255 7.42264 5.86587 5.85932C7.42836 4.29683 9.1518 3.04785 11.0378 2.11237C12.8947 1.18272 14.886 0.55052 16.9391 0.238899C18.9811 -0.079633 21.0239 -0.079633 23.0667 0.238899C25.1197 0.550534 27.1111 1.18273 28.9679 2.11237C30.854 3.04785 32.5774 4.29683 34.1399 5.85932C35.7024 7.42264 36.9547 9.14942 37.8952 11.0397C38.8209 12.8945 39.4505 14.8829 39.7611 16.9325C40.0796 18.9629 40.0796 21.0305 39.7611 23.0609C39.4496 25.1139 38.8174 27.1053 37.8877 28.9621C36.9522 30.8482 35.7024 32.5716 34.1407 34.1341L34.1399 34.1358ZM25.8454 25.6033L27.5722 25.5957V12.4295H14.4034L14.3967 14.1562L24.6174 14.1487L11.8317 26.9353L13.0664 28.17L25.8521 15.3843L25.8438 25.605L25.8454 25.6033Z" fill="#EFBF04"/>
</svg>
