<svg width="16" height="16" viewBox="0 0 16 16" fill="none" xmlns="http://www.w3.org/2000/svg">
<path fill-rule="evenodd" clip-rule="evenodd" d="M7.99928 14.4013C9.69664 14.4013 11.3245 13.727 12.5247 12.5268C13.7249 11.3266 14.3992 9.69872 14.3992 8.00136C14.3992 6.304 13.7249 4.67616 12.5247 3.47594C11.3245 2.27573 9.69664 1.60146 7.99928 1.60146C6.30192 1.60146 4.67408 2.27573 3.47386 3.47594C2.27365 4.67616 1.59938 6.304 1.59938 8.00136C1.59938 9.69872 2.27365 11.3266 3.47386 12.5268C4.67408 13.727 6.30192 14.4013 7.99928 14.4013ZM10.9648 6.96697C11.1106 6.81609 11.1912 6.61402 11.1894 6.40426C11.1875 6.19451 11.1034 5.99386 10.9551 5.84554C10.8068 5.69721 10.6061 5.61308 10.3964 5.61126C10.1866 5.60943 9.98453 5.69007 9.83365 5.83579L7.19929 8.47015L6.16491 7.43577C6.01403 7.29004 5.81195 7.20941 5.60219 7.21123C5.39244 7.21305 5.19179 7.29719 5.04347 7.44551C4.89514 7.59384 4.81101 7.79448 4.80919 8.00424C4.80736 8.21399 4.888 8.41607 5.03372 8.56695L6.6337 10.1669C6.78372 10.3169 6.98716 10.4011 7.19929 10.4011C7.41142 10.4011 7.61486 10.3169 7.76488 10.1669L10.9648 6.96697Z" fill="#FBBA14"/>
</svg>
