<svg width="31" height="29" viewBox="0 0 31 29" fill="none" xmlns="http://www.w3.org/2000/svg">
<path d="M6.94257 0.204807C6.48445 0.457966 0.106961 9.19798 0.0105146 9.69224C-0.0256526 9.87307 0.0346261 10.1744 0.143128 10.3673C0.348075 10.7531 7.17163 19.1194 11.9336 24.8336C13.7299 26.9794 14.9235 28.3054 15.1164 28.3778C15.2851 28.4381 15.5745 28.4501 15.7433 28.4019C16.0808 28.3175 18.7934 25.1349 25.5928 16.8771C27.4735 14.5866 29.4145 12.2238 29.9087 11.6331C30.9335 10.3914 31.0782 10.1383 30.9697 9.7284C30.8732 9.30647 24.339 0.349466 24.0014 0.156584C23.7844 0.0360317 21.9399 0.0119209 15.5263 -0.000133514C7.93114 -0.000133514 7.29218 0.0119228 6.94257 0.204807ZM14.0072 2.31446C13.6938 2.91722 10.9692 7.65491 10.8968 7.7393C10.8366 7.81163 9.3296 3.71286 8.90765 2.31446L8.82326 2.04925H11.4876H14.1519L14.0072 2.31446ZM22.0966 2.14569C22.0966 2.23008 20.6741 6.42528 20.2159 7.70313C20.1918 7.79957 19.5288 6.77488 18.721 5.37648C17.9374 4.00219 17.1658 2.70023 17.0332 2.47118L16.768 2.04925H19.4323C20.9031 2.04925 22.0966 2.09747 22.0966 2.14569ZM8.28075 6.06363C8.84737 7.71519 9.31755 9.06537 9.31755 9.07742C9.31755 9.08948 7.8588 9.10153 6.0625 9.10153C4.27825 9.10153 2.80745 9.07742 2.80745 9.05331C2.80745 8.94482 7.15957 2.98955 7.20779 3.03777C7.2319 3.06188 7.71413 4.42412 8.28075 6.06363ZM24.2305 3.59231C24.4354 3.90575 25.3999 5.24388 26.3644 6.56994C27.3288 7.89602 28.1245 9.00509 28.1245 9.04126C28.1245 9.07742 26.6778 9.08948 24.9177 9.06537C22.3136 9.04126 21.7229 9.00509 21.7591 8.87248C21.8676 8.40233 23.7362 3.01366 23.7844 3.01366C23.8206 3.01366 24.0135 3.27888 24.2305 3.59231ZM17.1899 6.36501C18.0338 7.84779 18.721 9.06537 18.721 9.07742C18.721 9.08948 17.2864 9.10153 15.5263 9.10153C13.7661 9.10153 12.3315 9.08948 12.3315 9.06537C12.3315 9.0292 14.3689 5.40059 15.0079 4.30357C15.2731 3.84547 15.5263 3.51998 15.5865 3.58026C15.6348 3.62848 16.3581 4.88222 17.1899 6.36501ZM10.0891 11.9586C10.9571 14.8398 13.4165 23.4351 13.3803 23.4713C13.3683 23.4834 12.669 22.6636 11.8493 21.651C11.0174 20.6504 8.73887 17.8777 6.78584 15.5028C4.83281 13.128 3.21734 11.1389 3.19323 11.0786C3.16912 11.0183 4.51936 10.9701 6.47239 10.9701H9.78772L10.0891 11.9586ZM19.2635 11.175C19.2153 11.2956 18.7692 12.8266 18.275 14.5866C17.7807 16.3467 17.0694 18.7818 16.7077 20.0115C16.334 21.2411 15.9241 22.6877 15.7794 23.2302C15.6468 23.7848 15.4901 24.2308 15.4419 24.2308C15.3816 24.2308 15.3454 24.1585 15.3454 24.0741C15.3454 23.8209 12.8137 14.6831 11.7769 11.175C11.7166 10.9821 11.9457 10.9701 15.5263 10.9701C19.1189 10.9701 19.3479 10.9821 19.2635 11.175ZM27.7508 11.175C27.6543 11.2956 27.1239 11.9345 26.5573 12.5975C25.9906 13.2606 24.7368 14.7795 23.7844 15.973C22.832 17.1665 21.1683 19.2038 20.1074 20.4937C19.0465 21.7836 18.07 22.9891 17.9374 23.1699C17.8048 23.3508 17.6601 23.5075 17.624 23.5075C17.5878 23.5075 17.8651 22.4948 18.2388 21.2411C18.6125 19.9994 19.4323 17.1785 20.0472 14.9724L21.1804 10.9701H24.5439C27.7267 10.9701 27.9075 10.9821 27.7508 11.175Z" fill="#EFBF04"/>
</svg>
