<svg width="18" height="20" viewBox="0 0 18 20" fill="none" xmlns="http://www.w3.org/2000/svg">
<path d="M15.9999 2.00018H11.8199C11.6151 1.41563 11.2338 0.909151 10.7286 0.550816C10.2234 0.192481 9.6193 0 8.99992 0C8.38054 0 7.77646 0.192481 7.27126 0.550816C6.76606 0.909151 6.3847 1.41563 6.17994 2.00018H1.99998C1.47004 2.00177 0.962256 2.21299 0.58753 2.58771C0.212803 2.96244 0.00158271 3.47022 0 4.00017V18C0.00158271 18.53 0.212803 19.0378 0.58753 19.4125C0.962256 19.7872 1.47004 19.9984 1.99998 20H15.9999C16.5298 19.9984 17.0376 19.7872 17.4123 19.4125C17.787 19.0378 17.9983 18.53 17.9998 18V4.00017C17.9983 3.47022 17.787 2.96244 17.4123 2.58771C17.0376 2.21299 16.5298 2.00177 15.9999 2.00018ZM8.99992 2.00018C9.1977 2.00018 9.39104 2.05883 9.55548 2.16871C9.71993 2.27859 9.8481 2.43477 9.92379 2.6175C9.99948 2.80022 10.0193 3.00128 9.98069 3.19526C9.94211 3.38924 9.84687 3.56742 9.70702 3.70728C9.56717 3.84713 9.38899 3.94237 9.19501 3.98095C9.00103 4.01954 8.79996 3.99973 8.61724 3.92405C8.43451 3.84836 8.27834 3.72019 8.16846 3.55574C8.05858 3.39129 7.99993 3.19795 7.99993 3.00017C8.00072 2.7352 8.10633 2.48131 8.29369 2.29395C8.48105 2.10659 8.73495 2.00098 8.99992 2.00018ZM6.99994 7.00014L9.78991 9.79411L12.3099 7.27414L10.9999 6.00015H14.9999V10.0001L13.7239 8.68912L9.79191 12.6241L6.99994 9.83011L4.41396 12.4141L2.99997 11.0001L6.99994 7.00014ZM15.9999 17H1.99998V15.0001H15.9999V17Z" fill="#606778"/>
</svg>
