<svg width="44" height="44" viewBox="0 0 44 44" fill="none" xmlns="http://www.w3.org/2000/svg">
<rect width="44" height="44" rx="12" fill="black"/>
<path d="M19.904 10.3938C18.9384 10.5813 18.1743 11.0031 17.4712 11.7438C15.8727 13.4406 15.9196 16.1547 17.579 17.7953C18.1555 18.3625 18.8212 18.7516 19.5852 18.9578C20.143 19.1125 21.2071 19.1125 21.7602 18.9625C23.4524 18.5031 24.6993 17.1578 24.9946 15.4656C25.0602 15.1047 25.0602 14.3172 24.9946 13.9563C24.6946 12.2641 23.4055 10.8719 21.7555 10.4641C21.2493 10.3422 20.3634 10.3047 19.904 10.3938Z" fill="#606778"/>
<path d="M19.754 19.5672C16.1165 19.9516 13.0649 22.6563 12.254 26.2188C12.2071 26.4391 12.1509 26.725 12.1321 26.8563C12.0759 27.2875 11.5837 27.25 17.2227 27.25H22.1868V27.0438C22.1868 26.8891 22.1259 26.7109 21.9524 26.35C21.6665 25.7641 21.5962 25.4313 21.6759 25.0563C21.7602 24.6344 21.9196 24.3813 22.3743 23.9359L22.7962 23.5234L22.9368 22.9609C23.0446 22.525 23.1149 22.3422 23.2509 22.1406C23.6165 21.6156 24.0477 21.4094 24.8868 21.3578C25.318 21.3344 25.4493 21.3109 25.543 21.2406C25.604 21.1891 25.6555 21.1328 25.6555 21.1094C25.6555 21.0484 25.079 20.6969 24.5305 20.425C23.0774 19.6984 21.3946 19.3984 19.754 19.5672Z" fill="#606778"/>
<path d="M26.6864 21.2876C26.5973 21.3345 26.3489 21.5032 26.1332 21.6626C25.6879 21.9907 25.5848 22.0282 24.9098 22.0704C24.0145 22.1267 23.8129 22.3001 23.5926 23.2189C23.4473 23.8282 23.3723 23.9548 22.9364 24.3485C22.2567 24.9626 22.2051 25.2767 22.627 26.1626C22.9176 26.772 22.9223 26.7954 22.8332 27.5782C22.7817 28.0657 22.7817 28.0751 22.9036 28.3423C23.0442 28.647 23.227 28.7876 23.827 29.036C24.3098 29.2329 24.4176 29.3267 24.802 29.8985C25.3082 30.6485 25.5567 30.7282 26.5598 30.4376L27.1082 30.2782L27.4036 30.3579C28.3364 30.6204 28.3879 30.6298 28.627 30.5782C28.9598 30.5079 29.1286 30.3579 29.4989 29.8048L29.827 29.3173L30.2395 29.1204C30.4645 29.0126 30.7364 28.886 30.8442 28.8345C31.0926 28.722 31.3036 28.4782 31.3786 28.2298C31.4254 28.0798 31.4254 27.9157 31.3786 27.4329C31.3129 26.7439 31.3176 26.711 31.6317 26.1017C31.8707 25.6423 31.927 25.3704 31.8426 25.0564C31.7911 24.8735 31.7067 24.761 31.3504 24.4142C31.1161 24.1798 30.8864 23.9407 30.8442 23.8751C30.802 23.8095 30.7129 23.5282 30.6473 23.247C30.5067 22.6564 30.4504 22.5345 30.2301 22.3423C30.0098 22.1454 29.8504 22.1032 29.1801 22.0517C28.5473 22.0048 28.5379 22.0001 27.9426 21.5454C27.7926 21.4329 27.6004 21.311 27.5114 21.2735C27.2817 21.1751 26.8832 21.1845 26.6864 21.2876ZM27.9661 23.1204C28.4582 23.2939 28.8098 23.5142 29.1707 23.8751C29.7332 24.4376 30.0145 25.1079 30.0145 25.9142C30.0145 26.6923 29.7332 27.3485 29.152 27.9345C28.5239 28.5626 27.8582 28.8251 26.9957 28.7876C25.6926 28.7314 24.6239 27.8548 24.2957 26.5657C23.9067 25.0564 24.8582 23.5001 26.4239 23.0735C26.8551 22.9564 27.5629 22.9798 27.9661 23.1204Z" fill="#606778"/>
<path d="M26.9266 24.3625C26.8984 24.4 26.8141 24.6015 26.7391 24.8171C26.5797 25.2953 26.5328 25.3281 25.975 25.3281C25.5297 25.3281 25.4219 25.3796 25.4219 25.5906C25.4219 25.675 25.4969 25.7593 25.7125 25.9281C25.8719 26.05 26.0547 26.1953 26.1203 26.2515L26.2422 26.35L26.1109 26.7437C25.9516 27.2359 25.9516 27.3671 26.1016 27.4656C26.2469 27.5593 26.3125 27.5359 26.7109 27.25C26.8891 27.1234 27.0766 27.0156 27.1188 27.0156C27.1656 27.0156 27.3484 27.1187 27.5219 27.2406C27.8969 27.5125 27.9766 27.5453 28.0938 27.4843C28.2766 27.3859 28.2906 27.2781 28.1641 26.889C27.9859 26.3265 27.9906 26.3171 28.3984 26.0218C28.7688 25.7593 28.8438 25.6375 28.7547 25.4406C28.7078 25.3328 28.6844 25.3281 28.2859 25.3281C27.6719 25.3281 27.6625 25.3187 27.4891 24.7984C27.4047 24.55 27.3063 24.339 27.2688 24.325C27.1422 24.2781 26.9828 24.2921 26.9266 24.3625Z" fill="#606778"/>
<path d="M23.4764 31.3141C23.1717 31.9797 22.9139 32.5328 22.9092 32.5469C22.8999 32.5609 22.9139 32.6031 22.9327 32.6359C22.9608 32.6828 23.1155 32.6687 23.6639 32.5703C24.0436 32.5047 24.3624 32.4578 24.3764 32.4672C24.3858 32.4812 24.5452 32.7484 24.7327 33.0672C24.967 33.475 25.0983 33.6484 25.1545 33.6484C25.2202 33.6484 25.3702 33.3719 25.7967 32.4531C26.1061 31.7969 26.3499 31.2531 26.3405 31.2484C26.3358 31.2391 26.2092 31.2578 26.0639 31.2859C25.628 31.375 25.0983 31.225 24.7092 30.9062C24.6155 30.8266 24.4374 30.6156 24.3202 30.4375C24.1983 30.2547 24.0858 30.1094 24.067 30.1094C24.0483 30.1094 23.7811 30.6531 23.4764 31.3141Z" fill="#606778"/>
<path d="M29.9314 30.4094C29.547 31 29.0689 31.2906 28.4689 31.3C28.3002 31.3 28.1033 31.2859 28.033 31.2672C27.9252 31.2391 27.9017 31.2437 27.9158 31.3C27.9252 31.3375 28.1689 31.8859 28.4642 32.5187C28.8392 33.325 29.0267 33.6719 29.0783 33.6719C29.1252 33.6719 29.2845 33.4469 29.5002 33.0719C29.6877 32.7437 29.8517 32.4672 29.8564 32.4578C29.8658 32.4484 30.1799 32.5 30.5595 32.5656C31.0142 32.65 31.2674 32.6734 31.2955 32.6453C31.3517 32.5891 31.347 32.575 30.7095 31.2109C30.433 30.6203 30.1892 30.1281 30.1705 30.1234C30.147 30.1141 30.0392 30.2453 29.9314 30.4094Z" fill="#606778"/>
</svg>
