<svg width="44" height="44" viewBox="0 0 44 44" fill="none" xmlns="http://www.w3.org/2000/svg">
<rect width="44" height="44" rx="12" fill="black"/>
<path d="M21.2031 11.0312V12.0625H22H22.7969V11.0312V10H22H21.2031V11.0312Z" fill="#606778"/>
<path d="M14.7578 12.7188L14.1953 13.2812L14.9828 14.0687L15.7656 14.8516L16.3375 14.275L16.9141 13.7031L16.1406 12.9297C15.7141 12.5031 15.3578 12.1562 15.3438 12.1562C15.3297 12.1562 15.0672 12.4094 14.7578 12.7188Z" fill="#606778"/>
<path d="M27.8594 12.9297L27.0859 13.7031L27.6625 14.275L28.2344 14.8516L29.0172 14.0687L29.8047 13.2812L29.2422 12.7188C28.9328 12.4094 28.6703 12.1562 28.6563 12.1562C28.6422 12.1562 28.2859 12.5031 27.8594 12.9297Z" fill="#606778"/>
<path d="M21.3672 14.0312C18.2172 14.3875 15.8687 17.1109 16.0141 20.2422C16.0703 21.4797 16.4406 22.5437 17.1531 23.5234C18.5641 25.4594 19.1453 27.0344 19.2719 29.2328C19.3141 29.9406 19.3469 30.0297 19.6562 30.2359L19.8109 30.3438H22H24.1891L24.3437 30.2359C24.6531 30.0297 24.6859 29.9406 24.7281 29.2094C24.8453 27.1469 25.5109 25.3469 26.8 23.5937C28.1547 21.7562 28.375 19.3094 27.3625 17.3031C26.5281 15.6484 24.8828 14.4109 23.1016 14.1016C22.5859 14.0125 21.8172 13.9844 21.3672 14.0312ZM24.1094 18.4797L24.6016 18.9391L24.0578 19.5203C23.7578 19.8391 23.1203 20.5234 22.6375 21.0391C22.1547 21.5547 21.6953 22.0141 21.6109 22.0562C21.4 22.1781 21.1562 22.1641 20.95 22.0234C20.7625 21.8969 19.5016 20.7906 19.4781 20.7297C19.4687 20.7062 19.8719 20.2188 20.3172 19.7312C20.3359 19.7078 20.5469 19.8625 20.7812 20.0734C21.0203 20.2797 21.2359 20.4531 21.2687 20.4484C21.2969 20.4484 21.8266 19.9 22.4453 19.2344C23.0641 18.5687 23.5797 18.0203 23.5937 18.0203C23.6078 18.0156 23.8375 18.2219 24.1094 18.4797Z" fill="#606778"/>
<path d="M11.6406 19.9375V20.7344H12.8125H13.9844V19.9375V19.1406H12.8125H11.6406V19.9375Z" fill="#606778"/>
<path d="M30.0156 19.9375V20.7344H31.1875H32.3594V19.9375V19.1406H31.1875H30.0156V19.9375Z" fill="#606778"/>
<path d="M19.3281 33.2266V34H22H24.6719V33.2266V32.4531H22H19.3281V33.2266Z" fill="#606778"/>
</svg>
