<svg width="285" height="124" viewBox="0 0 285 124" fill="none" xmlns="http://www.w3.org/2000/svg">
<path d="M31.2 44.7999C32.6708 44.7999 34.1272 44.5102 35.4861 43.9474C36.8449 43.3845 38.0796 42.5595 39.1196 41.5195C40.1596 40.4795 40.9846 39.2448 41.5475 37.886C42.1103 36.5271 42.4 35.0707 42.4 33.5999C42.4 32.1291 42.1103 30.6727 41.5475 29.3138C40.9846 27.955 40.1596 26.7203 39.1196 25.6803C38.0796 24.6403 36.8449 23.8153 35.4861 23.2525C34.1272 22.6896 32.6708 22.3999 31.2 22.3999C28.2296 22.3999 25.3808 23.5799 23.2804 25.6803C21.18 27.7807 20 30.6295 20 33.5999C20 36.5703 21.18 39.4191 23.2804 41.5195C25.3808 43.6199 28.2296 44.7999 31.2 44.7999ZM31.2 43.1999C29.9393 43.1999 28.691 42.9516 27.5262 42.4691C26.3615 41.9867 25.3032 41.2796 24.4118 40.3881C23.5203 39.4967 22.8132 38.4384 22.3308 37.2737C21.8483 36.1089 21.6 34.8606 21.6 33.5999C21.6 32.3392 21.8483 31.0909 22.3308 29.9261C22.8132 28.7614 23.5203 27.7031 24.4118 26.8117C25.3032 25.9202 26.3615 25.2131 27.5262 24.7307C28.691 24.2482 29.9393 23.9999 31.2 23.9999C33.7461 23.9999 36.1879 25.0113 37.9882 26.8117C39.7886 28.612 40.8 31.0538 40.8 33.5999C40.8 36.146 39.7886 38.5878 37.9882 40.3881C36.1879 42.1885 33.7461 43.1999 31.2 43.1999Z" fill="black"/>
<path opacity="0.5" d="M30.6347 25.8344C30.7847 25.6844 30.9882 25.6001 31.2004 25.6001C31.4126 25.6001 31.616 25.6844 31.7661 25.8344C31.9161 25.9844 32.0004 26.1879 32.0004 26.4001V34.4001C32.0004 34.6123 31.9161 34.8158 31.7661 34.9658C31.616 35.1158 31.4126 35.2001 31.2004 35.2001C30.9882 35.2001 30.7847 35.1158 30.6347 34.9658C30.4847 34.8158 30.4004 34.6123 30.4004 34.4001V26.4001C30.4004 26.1879 30.4847 25.9844 30.6347 25.8344Z" fill="black"/>
<path opacity="0.5" d="M39.9908 22.1069C40.0884 22.1489 40.1766 22.2098 40.2504 22.2862L42.5128 24.5486C42.5892 24.6224 42.6502 24.7107 42.6921 24.8083C42.734 24.9059 42.7561 25.0109 42.757 25.1171C42.758 25.2233 42.7377 25.3287 42.6975 25.427C42.6573 25.5253 42.5979 25.6146 42.5227 25.6897C42.4476 25.7649 42.3583 25.8243 42.26 25.8645C42.1617 25.9047 42.0563 25.9249 41.9501 25.924C41.8439 25.9231 41.7389 25.901 41.6413 25.8591C41.5437 25.8172 41.4554 25.7562 41.3816 25.6798L39.1192 23.4174C39.0428 23.3436 38.9819 23.2553 38.94 23.1577C38.898 23.0601 38.876 22.9552 38.875 22.8489C38.8741 22.7427 38.8944 22.6374 38.9346 22.5391C38.9748 22.4407 39.0342 22.3514 39.1093 22.2763C39.1844 22.2012 39.2738 22.1418 39.3721 22.1016C39.4704 22.0613 39.5757 22.0411 39.682 22.042C39.7882 22.0429 39.8932 22.065 39.9908 22.1069Z" fill="black"/>
<path opacity="0.5" d="M27.4335 19.4345C27.5836 19.2845 27.787 19.2002 27.9992 19.2002H34.3992C34.6114 19.2002 34.8149 19.2845 34.9649 19.4345C35.1149 19.5845 35.1992 19.788 35.1992 20.0002C35.1992 20.2124 35.1149 20.4159 34.9649 20.5659C34.8149 20.7159 34.6114 20.8002 34.3992 20.8002H27.9992C27.787 20.8002 27.5836 20.7159 27.4335 20.5659C27.2835 20.4159 27.1992 20.2124 27.1992 20.0002C27.1992 19.788 27.2835 19.5845 27.4335 19.4345Z" fill="black"/>
</svg>
