<svg width="54" height="55" viewBox="0 0 54 55" fill="none" xmlns="http://www.w3.org/2000/svg">
<path d="M40.8201 2.72266L32.5041 10.0741H37.0401L36.7161 11.8167C34.7721 23.8514 25.5921 33.3266 14.4141 35.5593C15.0081 35.6137 15.6021 35.6137 16.1961 35.6137C31.2621 35.6137 43.7901 25.4306 45.9501 11.3811L46.1661 10.1286H49.1361L40.8201 2.72266Z" fill="#008DD2"/>
<path d="M39.4742 29.6777C37.5842 31.4203 35.4783 32.9995 33.1562 34.252V51.6777H39.4742V29.6777Z" fill="#008DD2"/>
<path d="M23.7578 51.733H30.0758V35.832C28.0778 36.7033 25.9718 37.3568 23.7578 37.8469V51.733Z" fill="#008DD2"/>
<path d="M42.6562 51.732H48.9742V13.123H48.8123C47.8403 18.024 45.6803 22.4894 42.6562 26.2468V51.732Z" fill="#008DD2"/>
<path d="M11.1227 38.2826C8.96269 37.9558 6.85669 37.4657 4.80469 36.7578V51.7331H11.1227V38.2826Z" fill="#008DD2"/>
<path d="M14.3118 51.7322H20.6298V38.3906C19.1718 38.554 17.7138 38.6629 16.2018 38.6629C15.5538 38.6629 14.9058 38.6629 14.2578 38.6084V51.7322H14.3118Z" fill="#008DD2"/>
</svg>
