<svg width="27" height="27" viewBox="0 0 27 27" fill="none" xmlns="http://www.w3.org/2000/svg">
<path d="M9.27306 8.2575L2.09569 9.2981L1.96856 9.32398C1.77612 9.37506 1.60069 9.47631 1.46018 9.61737C1.31966 9.75844 1.2191 9.93427 1.16877 10.1269C1.11844 10.3195 1.12013 10.5221 1.17368 10.7139C1.22723 10.9056 1.33072 11.0798 1.47357 11.2184L6.67323 16.2797L5.447 23.429L5.43238 23.5527C5.4206 23.7518 5.46192 23.9503 5.55213 24.1282C5.64234 24.306 5.77818 24.4566 5.94574 24.5647C6.11331 24.6727 6.30659 24.7343 6.50577 24.7431C6.70496 24.7519 6.90291 24.7076 7.07935 24.6147L13.4985 21.2398L19.903 24.6147L20.0155 24.6665C20.2012 24.7396 20.403 24.762 20.6002 24.7314C20.7974 24.7008 20.983 24.6183 21.1378 24.4924C21.2926 24.3664 21.4111 24.2016 21.4812 24.0147C21.5512 23.8278 21.5703 23.6257 21.5365 23.429L20.3091 16.2797L25.511 11.2173L25.5988 11.1217C25.7241 10.9673 25.8063 10.7825 25.8369 10.586C25.8676 10.3895 25.8456 10.1884 25.7732 10.0032C25.7009 9.81794 25.5807 9.65521 25.4249 9.53155C25.2692 9.40789 25.0835 9.32773 24.8867 9.29923L17.7093 8.2575L14.5008 1.75511C14.408 1.56672 14.2643 1.40807 14.0859 1.29714C13.9076 1.1862 13.7018 1.12741 13.4917 1.12741C13.2817 1.12741 13.0759 1.1862 12.8975 1.29714C12.7192 1.40807 12.5755 1.56672 12.4826 1.75511L9.27306 8.2575Z" fill="#FFC327"/>
</svg>
