<svg width="14" height="8" viewBox="0 0 14 8" fill="none" xmlns="http://www.w3.org/2000/svg">
<path fill-rule="evenodd" clip-rule="evenodd" d="M7.69373 7.69373C7.49813 7.88927 7.23288 7.99912 6.9563 7.99912C6.67973 7.99912 6.41448 7.88927 6.21888 7.69373L0.318427 1.79328C0.218806 1.69706 0.139345 1.58197 0.0846808 1.45471C0.0300163 1.32746 0.00124285 1.19059 3.93812e-05 1.0521C-0.00116409 0.913605 0.0252268 0.776259 0.0776715 0.648074C0.130116 0.519889 0.207565 0.403431 0.305498 0.305498C0.403432 0.207564 0.519888 0.130116 0.648073 0.077671C0.776259 0.0252263 0.913605 -0.00116409 1.0521 3.93819e-05C1.19059 0.00124285 1.32746 0.0300163 1.45471 0.0846808C1.58197 0.139345 1.69706 0.218806 1.79328 0.318426L6.9563 5.48145L12.1193 0.318426C12.316 0.128429 12.5795 0.0232967 12.853 0.0256732C13.1265 0.0280497 13.3881 0.137744 13.5815 0.331132C13.7749 0.524519 13.8846 0.786125 13.8869 1.05961C13.8893 1.33309 13.7842 1.59656 13.5942 1.79328L7.69373 7.69373Z" fill="black"/>
</svg>
