<svg width="60" height="60" viewBox="0 0 60 60" fill="none" xmlns="http://www.w3.org/2000/svg">
<path d="M29.9991 14.0625C28.8741 14.0625 27.8747 14.5706 27.1866 15.3581L22.4138 12.9713C22.4681 12.7181 22.4991 12.4566 22.4991 12.1875C22.4991 10.1194 20.8172 8.4375 18.7491 8.4375C16.6809 8.4375 14.9991 10.1194 14.9991 12.1875C14.9991 13.0294 15.2878 13.7991 15.7584 14.4253L9.03094 22.8347C8.55021 22.6156 8.0283 22.5015 7.5 22.5C5.43188 22.5 3.75 24.1819 3.75 26.25C3.75 28.3181 5.43188 30 7.5 30C9.56813 30 11.25 28.3181 11.25 26.25C11.25 25.4081 10.9613 24.6384 10.4906 24.0122L17.2181 15.6028C17.6992 15.8219 18.2214 15.936 18.75 15.9375C19.875 15.9375 20.8744 15.4294 21.5625 14.6419L26.3353 17.0287C26.2809 17.2819 26.25 17.5434 26.25 17.8125C26.25 19.8806 27.9319 21.5625 30 21.5625C32.0681 21.5625 33.75 19.8806 33.75 17.8125C33.7494 17.0458 33.512 16.298 33.0703 15.6712L39.6084 8.04281C40.1177 8.29888 40.6791 8.43395 41.2491 8.4375C42.6675 8.4375 43.8891 7.63688 44.5256 6.47344L48.7519 7.53C48.7678 9.58406 50.4413 11.25 52.4991 11.25C54.5569 11.25 56.2491 9.56812 56.2491 7.5C56.2491 5.43187 54.5672 3.75 52.4991 3.75C51.0816 3.75 49.8591 4.55062 49.2225 5.71406L44.9963 4.6575C44.9794 2.60344 43.3069 0.9375 41.2491 0.9375C39.1913 0.9375 37.4991 2.61937 37.4991 4.6875C37.4991 5.48438 37.7531 6.22125 38.1788 6.82875L31.6406 14.4572C31.1311 14.201 30.5693 14.066 29.9991 14.0625ZM7.49906 28.125C6.465 28.125 5.62406 27.2841 5.62406 26.25C5.62406 25.2159 6.465 24.375 7.49906 24.375C8.53313 24.375 9.37406 25.2159 9.37406 26.25C9.37406 27.2841 8.53313 28.125 7.49906 28.125ZM18.7491 14.0625C17.715 14.0625 16.8741 13.2216 16.8741 12.1875C16.8741 11.1534 17.715 10.3125 18.7491 10.3125C19.7831 10.3125 20.6241 11.1534 20.6241 12.1875C20.6241 13.2216 19.7831 14.0625 18.7491 14.0625ZM29.9991 19.6875C28.965 19.6875 28.1241 18.8466 28.1241 17.8125C28.1241 16.7784 28.965 15.9375 29.9991 15.9375C31.0331 15.9375 31.8741 16.7784 31.8741 17.8125C31.8741 18.8466 31.0331 19.6875 29.9991 19.6875ZM52.4991 5.625C53.5331 5.625 54.3741 6.46594 54.3741 7.5C54.3741 8.53406 53.5331 9.375 52.4991 9.375C51.465 9.375 50.6241 8.53406 50.6241 7.5C50.6241 6.46594 51.465 5.625 52.4991 5.625ZM41.2491 2.8125C42.2831 2.8125 43.1241 3.65344 43.1241 4.6875C43.1241 5.72156 42.2831 6.5625 41.2491 6.5625C40.215 6.5625 39.3741 5.72156 39.3741 4.6875C39.3741 3.65344 40.215 2.8125 41.2491 2.8125ZM22.4991 46.875C27.6684 46.875 31.8741 42.6694 31.8741 37.5C31.8741 32.3306 27.6684 28.125 22.4991 28.125C17.3297 28.125 13.1241 32.3306 13.1241 37.5C13.1241 42.6694 17.3297 46.875 22.4991 46.875ZM22.4991 45C19.7306 45 17.3128 43.4878 16.0134 41.25H28.9838C27.6844 43.4878 25.2684 45 22.4991 45ZM29.9991 37.5C29.9991 38.1488 29.9081 38.7741 29.7525 39.375H28.1241V32.5556C29.3318 33.9195 29.9988 35.6782 29.9991 37.5ZM26.2491 31.0144V39.375H18.7491V31.0144C19.8873 30.3506 21.1814 30.0008 22.4991 30.0008C23.8167 30.0008 25.1108 30.3506 26.2491 31.0144ZM16.8741 32.5556V39.375H15.2456C15.0842 38.763 15.0013 38.1329 14.9991 37.5C14.9991 35.6053 15.7106 33.8775 16.8741 32.5556Z" fill="white"/>
<path d="M4.92844 59.0625C6.26531 59.0625 7.50656 58.3988 8.24906 57.285L12.4884 50.9259C12.6966 50.9878 12.9094 51.0291 13.125 51.0291C13.6931 51.0291 14.2622 50.8134 14.6944 50.3803L16.1166 48.9581C18.066 50.0517 20.2638 50.6257 22.4991 50.625C28.4325 50.625 33.4528 46.6641 35.0709 41.25H58.1241V39.375H57.1866V17.8125C57.1866 17.5639 57.0878 17.3254 56.912 17.1496C56.7362 16.9738 56.4977 16.875 56.2491 16.875H48.7491C48.5004 16.875 48.262 16.9738 48.0862 17.1496C47.9103 17.3254 47.8116 17.5639 47.8116 17.8125V39.375H45.9366V27.1875H44.0616V39.375H38.4366V15.9375H44.0616V24.375H45.9366V15C45.9366 14.7514 45.8378 14.5129 45.662 14.3371C45.4862 14.1613 45.2477 14.0625 44.9991 14.0625H37.4991C37.2504 14.0625 37.012 14.1613 36.8362 14.3371C36.6603 14.5129 36.5616 14.7514 36.5616 15V39.375H35.4741C35.5622 38.7609 35.6241 38.1384 35.6241 37.5C35.6241 31.9153 32.1122 27.1481 27.1866 25.2553V21.5625C27.1866 21.3139 27.0878 21.0754 26.912 20.8996C26.7362 20.7238 26.4977 20.625 26.2491 20.625H18.7491C18.5004 20.625 18.262 20.7238 18.0862 20.8996C17.9103 21.0754 17.8116 21.3139 17.8116 21.5625V25.2553C14.6688 26.4666 12.1092 28.8354 10.6584 31.875H3.75C3.50136 31.875 3.2629 31.9738 3.08709 32.1496C2.91127 32.3254 2.8125 32.5639 2.8125 32.8125V39.375H1.875V41.25H9.92813C10.2047 42.1744 10.5797 43.0556 11.0419 43.8825L9.61406 45.3103C9.33233 45.5938 9.13299 45.9486 9.03738 46.3367C8.94176 46.7247 8.95347 47.1315 9.07125 47.5134L2.715 51.7509C2.16786 52.1149 1.71924 52.6086 1.40911 53.188C1.09898 53.7673 0.936965 54.4144 0.937501 55.0716C0.938742 56.1296 1.35961 57.144 2.10779 57.8922C2.85597 58.6404 3.87036 59.0613 4.92844 59.0625ZM49.6875 18.75H55.3125V39.375H49.6875V18.75ZM19.6875 22.5H25.3125V24.6863C24.389 24.4814 23.446 24.3771 22.5 24.375C21.554 24.3771 20.611 24.4814 19.6875 24.6863V22.5ZM22.5 26.25C28.7034 26.25 33.75 31.2966 33.75 37.5C33.75 43.7034 28.7034 48.75 22.5 48.75C16.2966 48.75 11.25 43.7034 11.25 37.5C11.25 31.2966 16.2966 26.25 22.5 26.25ZM4.6875 39.375V33.75H9.92813C9.56264 34.9665 9.37631 36.2298 9.375 37.5C9.375 38.1384 9.43594 38.7609 9.525 39.375H4.6875ZM10.9397 46.6359L12.1003 45.4753C12.8 46.385 13.615 47.2 14.5247 47.8997L13.3688 49.0556C13.1925 49.2319 13.0566 49.2319 12.8803 49.0556L10.9388 47.1141C10.8757 47.0505 10.8403 46.9646 10.8403 46.875C10.8403 46.7854 10.8766 46.6995 10.9397 46.6359ZM3.75469 53.3109L10.1934 49.0191L10.9819 49.8075L6.69 56.2463C6.51688 56.5083 6.28763 56.7286 6.01887 56.8911C5.75011 57.0537 5.44856 57.1544 5.13606 57.186C4.82357 57.2176 4.50796 57.1793 4.21209 57.0739C3.91623 56.9685 3.64751 56.7985 3.42542 56.5765C3.20332 56.3544 3.03341 56.0857 2.92799 55.7898C2.82256 55.4939 2.78427 55.1783 2.81588 54.8658C2.84748 54.5533 2.9482 54.2518 3.11074 53.983C3.27328 53.7142 3.49356 53.485 3.75563 53.3119L3.75469 53.3109Z" fill="white"/>
</svg>
