<svg width="45" height="45" viewBox="0 0 45 45" fill="none" xmlns="http://www.w3.org/2000/svg">
<path d="M37.2512 28.8375C34.9449 28.8375 32.7137 28.4625 30.6324 27.7875C30.3063 27.6776 29.9559 27.6616 29.6211 27.7411C29.2863 27.8207 28.9805 27.9927 28.7387 28.2375L25.7949 31.9313C20.4887 29.4 15.5199 24.6187 12.8762 19.125L16.5324 16.0125C17.0387 15.4875 17.1887 14.7563 16.9824 14.1C16.2887 12.0187 15.9324 9.7875 15.9324 7.48125C15.9324 6.46875 15.0887 5.625 14.0762 5.625H7.58867C6.57617 5.625 5.35742 6.075 5.35742 7.48125C5.35742 24.9 19.8512 39.375 37.2512 39.375C38.5824 39.375 39.1074 38.1937 39.1074 37.1625V30.6938C39.1074 29.6813 38.2637 28.8375 37.2512 28.8375Z" fill="white"/>
</svg>
