<svg width="326" height="56" viewBox="0 0 326 56" fill="none" xmlns="http://www.w3.org/2000/svg">
<path d="M172.005 49V44.3333C172.005 41.858 171.021 39.484 169.271 37.7337C167.521 35.9833 165.147 35 162.671 35H148.671C146.196 35 143.822 35.9833 142.072 37.7337C140.321 39.484 139.338 41.858 139.338 44.3333V49" stroke="#FBBA14" stroke-width="2" stroke-linecap="round" stroke-linejoin="round"/>
<path d="M155.671 25.6667C160.826 25.6667 165.005 21.488 165.005 16.3333C165.005 11.1787 160.826 7 155.671 7C150.517 7 146.338 11.1787 146.338 16.3333C146.338 21.488 150.517 25.6667 155.671 25.6667Z" stroke="#FBBA14" stroke-width="2" stroke-linecap="round" stroke-linejoin="round"/>
<path d="M186.006 49V44.3333C186.004 42.2654 185.316 40.2565 184.049 38.6221C182.782 36.9877 181.008 35.8203 179.006 35.3033" stroke="#FBBA14" stroke-width="2" stroke-linecap="round" stroke-linejoin="round"/>
<path d="M172.006 7.30334C174.013 7.81738 175.793 8.98498 177.064 10.6221C178.334 12.2592 179.024 14.2726 179.024 16.345C179.024 18.4174 178.334 20.4309 177.064 22.068C175.793 23.705 174.013 24.8726 172.006 25.3867" stroke="#FBBA14" stroke-width="2" stroke-linecap="round" stroke-linejoin="round"/>
</svg>
